<?xml version="1.0" encoding="UTF-8" standalone="no"?>
<svg width="946px" height="758px" viewBox="0 0 946 758" version="1.1" xmlns="http://www.w3.org/2000/svg" xmlns:xlink="http://www.w3.org/1999/xlink" xmlns:sketch="http://www.bohemiancoding.com/sketch/ns">
    <!-- Generator: Sketch 3.3.3 (12072) - http://www.bohemiancoding.com/sketch -->
    <title>Untitled</title>
    <desc>Created with Sketch.</desc>
    <defs></defs>
    <g id="Page-1" stroke="none" stroke-width="1" fill="none" fill-rule="evenodd" sketch:type="MSPage">
        <g id="Neighborhoods" sketch:type="MSLayerGroup" fill="#D5D8DB">
            <path d="M717.730742,280.820694 C713.323304,290.076701 714.490218,299.149649 716.809138,308.434132 C717.395983,310.778644 717.943524,313.13536 718.526304,315.558519 C722.809054,314.767975 727.105358,314.022179 731.381332,313.173327 C736.608728,312.135993 741.440375,311.022723 744.428814,305.421116 C745.790891,302.866426 749.925914,301.791123 752.801862,300.044605 C753.438854,300.48259 754.075845,300.920576 754.714192,301.357206 C752.461682,316.285331 750.210527,331.213456 747.875344,346.692114 C766.155642,350.94044 783.785395,349.185785 800.139811,340.256572 C811.910599,352.883578 806.088226,365.605503 802.531917,378.224372 C801.832582,380.703127 800.973321,383.162898 800.568086,385.691825 C799.151797,394.517982 797.376352,403.132605 788.850155,408.180966 C787.172292,409.173553 785.20033,410.232583 783.342212,410.271907 C771.570069,410.524122 771.567358,410.431914 770.491249,418.973313 C766.562232,422.587034 763.554819,424.859678 761.154582,427.657091 C755.481292,434.270268 752.765269,442.815735 743.222596,446.901342 C737.613006,449.302805 734.180029,457.356047 730.503097,463.321059 C729.57065,464.832991 731.450453,468.08195 732.124037,470.887499 C728.827946,474.884966 725.320427,479.625517 721.236905,483.801975 C719.980542,485.0861 717.142542,485.224411 715.045891,485.171528 C713.049533,485.121356 711.07757,484.135549 709.094765,483.561964 C708.713926,484.192501 708.330375,484.824394 707.946825,485.45493 C702.117676,472.678766 696.289883,459.902601 691.265782,448.889227 C697.395808,439.817635 693.254009,431.433531 694.935937,423.989131 C696.829292,415.606383 694.712312,408.498268 689.81561,401.71288 C691.02996,400.695886 692.279547,399.649059 693.966897,398.23747 C681.091539,392.95859 668.633613,391.719213 655.638989,394.326787 C650.805986,395.297678 646.157304,394.97224 642.319092,390.34288 C636.731186,383.604952 628.271398,381.522147 619.302017,387.702762 C612.991736,392.051431 605.23806,394.306447 598.614705,397.278784 L598.614705,371.211177 C598.614705,360.778168 597.920791,350.281428 598.872212,339.936558 C599.450926,333.650175 602.343138,327.51024 604.643083,321.477428 C605.885894,318.218977 607.909358,315.208673 609.871834,312.28244 C613.341404,307.106615 614.410736,301.830447 610.850361,295.614576 C620.563802,294.665381 629.941129,292.326293 639.021645,293.172433 C655.517011,294.707417 669.342436,287.602014 683.662544,281.946168 C693.107636,278.215832 702.079728,273.292222 711.310682,269.007284 C713.456123,268.013342 715.796728,267.442469 720.387132,265.881721 C719.335418,272.276583 719.534648,277.026626 717.730742,280.820694 Z" id="Squirrel-Hill" sketch:type="MSShapeGroup"></path>
            <path d="M390.050166,593.664515 C388.774828,593.774351 387.018358,593.924866 384.474458,594.144537 C384.798375,596.608376 385.095186,598.868816 385.501777,601.963191 C374.630908,604.884 363.684143,604.212784 353.355395,600.744154 C347.186066,608.770275 352.76855,615.727875 354.779817,622.880737 C356.305885,628.308776 356.177132,632.375399 349.456195,633.266286 C350.117582,636.455581 350.684097,639.182483 351.256034,641.940572 C346.776765,643.072826 342.344931,644.713578 337.806029,645.108172 C335.759524,645.285807 332.58812,643.478268 331.597395,641.659882 C330.677146,639.974383 331.980946,637.073914 332.307573,634.709063 C332.466143,633.557825 332.917458,631.4479 332.749401,631.397728 C324.826312,629.020673 327.023255,622.978369 327.565375,617.512361 C327.69684,616.187556 327.58435,614.841055 327.58435,612.161614 C323.241966,614.554941 319.734447,616.487231 316.657914,618.182222 C308.504424,612.466712 300.235734,606.477292 291.763748,600.79297 C283.432713,595.200855 276.225223,587.706283 264.505937,583.066075 C262.936499,577.520064 260.559301,569.611914 258.591404,561.602064 C258.309501,560.450826 259.773226,557.791725 260.816808,557.557138 C282.343052,552.709463 292.727367,534.116089 306.57041,520.031392 C309.832619,516.714633 310.298842,510.265531 311.225868,505.108691 C313.092117,494.710937 319.181484,488.169628 328.562877,484.149109 C334.698324,481.519839 340.794467,478.803785 348.190344,475.564318 C348.8951,476.799628 350.345272,479.597041 352.033977,482.238515 C353.867699,485.107796 356.116143,487.72215 357.823822,490.657875 C359.299745,493.197649 361.477713,496.142866 361.240536,498.712472 C360.520871,506.476887 363.295172,512.151717 369.156848,516.86786 C373.440954,520.313438 376.293862,524.560408 376.566278,530.437281 C376.635398,531.930229 378.925857,533.31741 380.964229,534.221857 C380.324527,545.865767 386.022212,555.875707 391.265871,566.209728 C393.210728,570.041764 393.732519,575.01419 393.531934,579.403538 C393.324573,583.891875 391.436639,588.305631 390.050166,593.664515 L390.050166,593.664515 Z" id="Shape" sketch:type="MSShapeGroup"></path>
            <path d="M716.902653,488.455742 C708.362903,501.553277 701.162189,512.905649 693.648401,524.045131 C682.921195,539.946859 669.999756,552.229442 650.10665,556.990333 C633.95553,560.854912 615.35267,555.462129 606.674679,544.090773 C597.907238,532.602801 590.942347,520.192755 590.420556,505.031399 C589.798473,486.924826 588.2331,468.845374 587.89292,450.738801 C587.520212,430.874862 579.140387,414.68702 566.786819,399.996193 C564.313395,397.053689 561.724771,394.206104 559.190358,391.316483 C559.653871,390.631707 560.116029,389.945574 560.578186,389.259442 C562.064951,389.91981 563.931201,390.216773 564.969361,391.304279 C568.590725,395.096991 571.717404,399.372436 575.440415,403.052601 C577.969407,405.553052 581.180115,407.363302 584.962759,410.121392 C584.995287,410.590565 585.12133,412.362848 585.255504,414.217846 C587.156991,414.402261 589.128954,415.112801 590.777,414.655832 C595.574765,413.324247 597.882842,415.78673 598.828842,419.766569 C601.292779,430.124998 610.542708,433.856691 617.403241,440.181041 C628.073524,450.013345 639.584095,448.906855 652.001361,446.143342 C658.582702,444.678869 665.402576,442.307238 671.467547,448.371238 C672.62633,449.529256 675.89396,449.106186 678.032625,448.6682 C687.977822,446.626075 690.394324,448.829564 692.321562,459.678862 C693.14694,464.333986 696.035086,468.643331 698.123605,473.044884 C700.091501,477.196934 702.09057,481.354408 704.38916,485.328823 C705.313476,486.927538 706.899178,488.8422 708.488946,489.186623 C710.757719,489.67478 713.308395,488.847624 716.902653,488.455742 L716.902653,488.455742 Z" id="Shape" sketch:type="MSShapeGroup"></path>
            <path d="M507.763467,194.613449 C513.249725,186.267313 518.754957,178.544934 523.571696,170.417113 C531.557129,156.942612 539.455822,143.393531 546.733788,129.531216 C554.708378,114.338673 566.27045,103.287331 580.730155,94.1194633 C603.282361,79.8232308 628.851467,73.898898 653.381057,65.0646047 C656.395246,71.7876172 651.186825,72.7788479 647.275427,74.4901109 C636.998181,78.9865832 626.676209,83.38 616.035742,87.9591878 C618.965903,91.7952916 621.372917,94.946619 623.801616,98.1264222 C621.696834,100.439746 616.031676,101.718447 621.479986,106.393911 C620.200582,107.748547 619.184106,109.367603 617.724447,110.270694 C611.838375,113.912891 613.09745,120.804047 610.600986,125.966311 C610.315017,126.554812 613.413235,130.02751 614.706192,129.893267 C618.038877,129.5502 621.237387,127.931145 625.323619,126.537184 C635.366398,135.631828 644.20296,147.734064 658.464791,153.96214 C646.791585,149.397868 637.521327,157.023971 627.345728,158.823374 C615.584427,160.902111 608.523309,176.536708 613.860484,186.923614 C614.780734,188.712168 614.627585,191.052612 615.130401,194.099528 C598.056321,187.802297 582.109851,189.578648 566.095616,194.888716 C567.131066,200.326247 568.154318,205.70547 569.281928,211.632515 C573.205524,211.124018 576.828244,210.652132 581.815751,210.005324 C579.328774,213.589213 577.526223,216.184583 575.470232,219.144716 C565.564338,214.153306 556.387596,220.462741 546.754117,221.215317 C543.743994,221.449903 540.849072,222.910308 537.845725,223.531352 C536.611046,223.786279 534.839668,223.770007 533.979052,223.064891 C531.239989,220.818011 528.666272,218.321628 526.29314,215.682866 C520.065533,208.752386 513.974811,201.694444 507.763467,194.613449 L507.763467,194.613449 Z" id="Shape" sketch:type="MSShapeGroup"></path>
            <path d="M683.289837,684.45366 C669.422398,685.881521 655.479063,687.059878 641.614335,688.844365 C633.599086,689.877631 627.974587,686.373746 622.778364,681.104358 C620.515011,678.811374 618.286897,675.262741 615.14802,680.580945 C614.825458,681.12741 611.298966,679.780909 608.965138,679.246648 C611.60933,673.114848 618.109352,670.364894 617.260934,663.251356 C617.138957,662.235717 623.869381,660.034941 627.600524,659.00981 C633.952819,657.263292 640.512476,656.258501 646.81598,654.375027 C648.264797,653.943821 649.961633,651.21014 649.958923,649.540912 C649.933172,636.092175 649.529292,622.644794 649.236547,609.025202 C642.785315,609.495732 637.427811,609.427932 632.251917,610.359499 C621.566725,612.283653 617.808476,610.564254 613.880814,600.896025 C607.033834,599.592916 598.885765,603.149685 594.251991,596.540576 C582.687209,598.407778 571.465318,600.219385 559.350284,602.174726 L559.350284,570.866208 C547.006203,572.738834 553.910106,563.903184 552.115688,559.031102 C549.100143,558.471077 545.440831,558.393785 542.360232,557.021521 C539.957284,555.94893 538.267223,553.26542 536.264089,551.293807 C534.607911,549.665259 533.09133,546.797335 531.282003,546.59936 C519.845974,545.355914 509.87096,542.497481 506.878456,526.717792 C510.32363,523.529853 514.980444,518.90863 519.977438,514.694204 C525.066593,510.403843 530.493218,506.513499 534.445275,503.470651 C537.937885,503.885585 540.381493,504.182547 542.827811,504.457814 C543.27235,504.50663 543.945934,504.254415 544.147874,504.475442 C552.008619,513.090064 551.919169,502.052283 555.265407,499.855574 C558.504576,497.729377 561.324957,494.968576 564.329659,492.484397 C564.932768,492.946791 565.537232,493.41054 566.140341,493.871578 C565.811003,496.174054 565.329871,498.468394 565.182143,500.783073 C564.875845,505.581932 563.016372,511.039803 570.332287,512.779542 C571.385355,513.030401 572.334066,515.103714 572.729814,516.504454 C574.846794,523.990891 576.217003,531.743102 578.987238,538.96512 C580.487556,542.878515 584.275622,545.907803 587.005198,549.356093 C589.878436,552.99151 592.637828,556.719134 595.592384,560.282683 C600.536521,566.249052 605.59586,572.119145 610.611828,578.02585 C610.903218,578.368916 611.187831,578.821818 611.572736,578.966909 C620.891785,582.474862 630.223032,585.94756 641.078991,589.999267 C640.204822,584.736658 639.714203,581.77517 639.136845,578.30654 C642.072427,577.411585 644.902295,576.547818 648.766258,575.36946 C646.754991,574.18161 645.100169,573.203939 642.564401,571.708279 C648.136043,570.783492 652.014914,569.594286 655.836862,569.751581 C657.58249,569.823449 660.308,572.314408 660.695616,574.116522 C661.767659,579.088948 661.514218,584.332572 662.418203,589.356526 C663.047063,592.841428 665.348364,596.060555 665.783415,599.540032 C666.41092,604.56263 667.53853,610.318819 665.790192,614.698676 C660.448951,628.070122 661.691762,638.636018 674.813785,646.52654 C677.6301,648.220175 679.569536,651.322687 682.084974,653.585839 C687.018269,658.021292 688.193315,662.646583 685.401395,669.172977 C683.490421,673.639617 683.936315,679.116472 683.289837,684.45366 L683.289837,684.45366 Z" id="Shape" sketch:type="MSShapeGroup"></path>
            <path d="M400.788215,534.78595 L400.788215,501.36615 C421.911934,506.764358 441.394384,517.488905 464.174281,513.298887 C464.262375,512.422916 464.483289,510.273667 464.704203,508.121707 C470.923679,509.179381 470.923679,509.179381 483.368052,522.946776 C480.120751,525.63571 476.984585,528.441259 473.635636,530.96205 C467.483926,535.592766 464.853287,541.502182 467.544914,548.288927 C472.101436,559.764694 477.299014,570.989603 482.476264,582.206376 C482.869301,583.056583 485.388805,583.597624 486.641103,583.255914 C490.990264,582.066708 492.561057,584.498004 492.798235,587.947649 C493.139771,592.888887 493.74288,598.085052 492.569189,602.751023 C491.929487,605.290798 487.848676,606.964093 484.951043,608.391953 C479.392954,614.259335 485.051335,619.090737 487.297069,625.280844 C482.400367,622.776326 479.109696,623.44483 475.705181,627.679596 C472.310152,631.899445 475.687562,634.200565 476.679642,637.267821 C477.469782,639.720812 478.442888,642.112784 480.169542,646.799095 C472.707255,639.266555 467.39312,644.853245 461.654777,646.004483 C459.743802,646.386873 457.556347,645.738708 455.558633,645.283095 C450.270249,644.076261 445.015748,642.718912 439.114768,641.265288 C438.746126,637.113238 438.288034,631.963177 437.873312,627.310766 C429.633083,628.109445 422.70343,628.782018 413.835696,629.641717 C418.881481,626.418522 425.927691,627.865367 423.237418,619.890773 C421.516186,620.240619 419.719057,620.604025 415.288579,621.503048 C417.522115,617.012 419.862719,614.201027 420.213742,611.160891 C420.754507,606.458308 421.639519,600.41058 419.312467,597.072125 C415.403779,591.462383 414.89012,586.073667 415.979782,579.11878 C413.578189,579.11878 411.683479,579.171664 409.794189,579.101152 C408.356215,579.048268 406.190444,579.394047 405.603599,578.614351 C400.186461,571.426233 395.098662,563.99268 389.803501,556.712354 C384.95288,550.039513 384.204754,542.492057 384.589659,534.78595 C389.79537,534.78595 394.849287,534.78595 400.788215,534.78595 L400.788215,534.78595 Z" id="Shape" sketch:type="MSShapeGroup"></path>
            <path d="M784.186564,211.185038 C780.838971,201.111367 770.699966,193.464923 772.059332,180.832494 C773.893054,163.806648 775.96802,146.798429 777.290794,129.731903 C778.019946,120.321313 777.420903,110.807667 778.906312,102.243216 C781.122229,99.9298927 783.151115,97.3874061 785.628605,95.4022326 C786.874126,94.4055778 789.103596,93.7194454 790.594427,94.0869195 C810.013178,98.8776422 829.338413,104.054823 848.784269,108.731642 C854.78012,110.173063 861.048387,110.703256 867.225848,111.080222 C871.993797,111.37176 873.183751,113.439649 871.85149,117.606615 C870.25359,122.599381 871.236183,129.15425 863.637011,130.588891 C862.712696,130.762458 862.021493,133.610043 861.698931,135.309102 C858.417748,152.682082 855.242278,170.074047 852.023438,187.457875 C850.09349,197.88546 848.140501,208.308977 846.172605,218.870805 C841.514436,217.371077 836.712605,216.039492 832.092384,214.240089 C829.97947,213.417002 828.216223,211.688111 826.318802,210.333474 C824.269587,208.871714 822.304401,207.28927 820.211817,205.893953 C813.887983,201.678172 807.676639,202.758898 801.088521,205.71903 C795.977682,208.018794 790.378934,209.233764 784.186564,211.185038 L784.186564,211.185038 Z" id="Shape" sketch:type="MSShapeGroup"></path>
            <path d="M273.740957,380.277345 C281.890381,389.336733 284.779883,402.908866 298.803181,404.709624 L298.803181,416.468794 C302.126378,415.464004 304.392441,414.779227 307.596372,413.811048 C311.125576,418.459392 315.06137,423.246047 318.491636,428.371699 C319.705986,430.184662 320.218289,432.842408 320.146458,435.08522 C319.626023,451.430358 321.675238,466.306955 339.571986,469.676597 C340.969301,469.93966 342.174163,471.230565 344.399567,472.627238 C340.791756,475.275492 337.906321,479.039728 334.470633,479.639077 C317.064504,482.677857 310.071152,494.176676 307.105754,510.119084 C306.310192,514.39453 303.611788,518.667263 300.799539,522.139961 C295.595183,528.566011 290.069622,534.86053 283.916556,540.355013 C277.985759,545.651521 271.092699,549.868658 263.34851,555.482469 C260.209633,547.281424 258.201077,541.039789 255.409158,535.172408 C254.076897,532.373639 252.569802,528.2921 247.469805,530.765431 C245.045172,531.939721 242.026917,531.886837 239.580599,532.335671 C236.930986,526.347606 244.757848,519.128301 236.722269,513.591782 C240.149825,511.409989 244.882536,510.064844 246.519739,507.042336 C251.579077,497.70497 256.25351,487.996061 259.632275,477.945442 C266.541599,457.394014 266.448083,435.854068 266.423688,414.471417 C266.419622,411.039399 263.669716,407.690097 262.69661,404.161803 C259.81253,393.720658 265.929003,387.163077 273.740957,380.277345 L273.740957,380.277345 Z" id="Shape" sketch:type="MSShapeGroup"></path>
            <path d="M527.927633,342.194286 C523.526971,340.493871 519.687404,339.122962 515.988788,337.441531 C515.487327,337.213725 515.918312,335.328894 515.521209,334.378343 C515.003484,333.134898 514.042576,331.041245 513.354083,331.072433 C509.269206,331.262272 506.925891,329.572705 504.76012,326.109499 C503.76533,324.517564 500.432645,324.386032 498.159805,323.592776 C498.430865,325.672869 498.701926,327.754318 498.878115,329.100819 C495.923559,330.483932 492.556991,331.643306 489.64716,333.51322 C484.360132,336.912694 478.936218,336.59268 472.846851,336.956086 C459.444281,337.754766 452.181223,333.197274 449.072163,320.353309 C448.111255,316.38025 445.469774,312.767886 443.35686,309.131113 C441.441819,305.83605 439.308576,303.064401 435.371427,307.384594 C434.129971,308.746011 431.840868,309.152809 428.753493,309.160945 C430.221284,307.170347 431.344828,304.748544 433.212433,303.26102 C442.924519,295.527792 452.56884,287.66439 462.7729,280.625431 C467.368725,277.456476 473.340181,276.359478 478.457797,273.854959 C485.490453,270.413449 492.180218,266.265467 499.242691,262.894469 C510.285682,257.623725 520.226814,250.534594 533.241768,248.797567 C542.869825,247.513442 552.59953,242.576272 560.93192,237.175352 C569.703427,231.49103 574.865768,232.133771 576.806559,242.675259 C578.23098,250.408487 581.756117,257.70644 578.922183,266.340047 C576.017774,275.182476 568.00388,278.341939 562.588097,284.27034 C559.361126,287.804057 555.338593,290.255692 555.094639,295.744751 C555.036361,297.060064 553.04949,299.49814 552.247152,299.380168 C545.596691,298.406565 543.037883,303.914608 538.887951,307.032036 C536.068926,309.148741 532.657633,310.926447 529.250407,311.708855 C523.586605,313.009252 517.681559,316.867052 521.308344,324.817238 C523.670633,329.991707 525.393221,335.463138 527.927633,342.194286 L527.927633,342.194286 Z" id="Shape" sketch:type="MSShapeGroup"></path>
            <path d="M294.842991,126.534472 C292.99165,121.613574 288.231834,117.887306 293.831937,112.604358 L300.113756,112.604358 C299.201639,109.888304 298.822155,107.440737 297.641688,105.474547 C292.978097,97.6979284 291.869461,89.5687513 293.578496,80.6734383 C294.174828,77.5722826 293.593404,73.7768587 292.29367,70.8587621 C285.628301,55.8913131 282.653415,40.365195 284.344831,24.060737 C284.527797,22.2993023 286.339834,20.7073667 287.395613,19.0367835 C288.59641,20.3466726 289.733507,21.7216494 291.010201,22.9528909 C292.721946,24.6004222 294.367281,27.1808766 296.350086,27.5144508 C301.356567,28.3578784 306.002539,28.9531592 306.228874,35.6992236 C314.45555,29.7708229 315.862352,27.0778211 317.486003,14.218941 C326.566519,16.8251592 335.453226,19.3473059 344.308762,21.973864 C345.06502,22.1989589 346.081496,23.0654383 346.181788,23.7515707 C347.3609,31.8021002 352.843092,38.3529016 352.314524,47.3458462 C351.493212,61.3356243 354.449123,74.8657209 360.939659,87.8561324 C364.018903,94.0164079 363.745132,102.104905 363.994507,109.354043 C364.192381,115.066841 362.865542,120.832522 362.168917,126.991442 C356.528155,127.711474 350.62853,128.465406 344.299275,129.273578 L344.299275,135.056887 C336.377542,138.674676 335.10898,131.44859 331.543183,127.455191 C333.699467,126.236154 335.563006,125.181191 337.426544,124.128941 C337.204275,123.490268 336.98065,122.851596 336.758381,122.212923 C329.292029,122.570905 322.102158,121.162029 314.332218,124.61303 C308.593874,127.159585 301.225103,126.039535 294.842991,126.534472 L294.842991,126.534472 Z" id="Shape" sketch:type="MSShapeGroup"></path>
            <path d="M782.31896,94.0231878 C781.953029,95.0293345 781.635888,96.8761968 781.226587,96.8965367 C772.50116,97.3263864 775.108759,103.799896 774.774,108.718082 C773.428186,128.515578 772.762734,148.402569 770.182241,168.038701 C769.584553,172.590769 762.597977,176.482469 758.208158,180.277893 C756.089822,182.109839 753.123069,182.931571 750.626605,184.360787 C745.563201,187.258544 740.846754,189.580004 738.454648,181.301667 C738.110401,180.112462 735.993421,179.267678 734.543249,178.591038 C721.970123,172.730436 709.378023,166.907803 696.753395,161.161106 C693.32855,159.601714 691.679149,157.451109 692.036948,153.408894 C692.78914,144.886479 690.535275,135.953199 695.873805,128.099288 C696.315633,127.448411 696.241092,126.328361 696.152997,125.45239 C695.417069,118.155792 696.281751,112.17722 705.276883,110.446973 C707.110605,110.094415 708.211109,106.294923 709.790034,104.190422 C714.429229,98.0138748 720.229917,92.4258283 723.570734,85.6214562 C728.818458,74.9348766 735.643754,82.1107907 741.800885,82.8376029 C747.478241,83.5074633 753.155596,84.6858211 758.654052,86.2641968 C766.594759,88.5422648 774.37012,91.3871377 782.31896,94.0231878 L782.31896,94.0231878 Z" id="Shape" sketch:type="MSShapeGroup"></path>
            <path d="M269.242713,126.092419 C254.761324,124.66727 245.736375,133.219517 236.924209,143.321664 C230.947332,132.772039 224.794266,121.911893 218.626292,111.025982 C213.911201,112.9759 209.663688,114.734623 206.656275,115.978068 C200.242991,105.964061 194.011318,96.2348122 187.493676,86.0607979 C190.581052,75.2698068 202.534805,71.7049016 210.39555,63.9743864 C214.372003,60.065059 219.04237,56.7984723 222.652891,52.5989624 C227.166043,47.3499141 231.809304,46.6976816 236.79139,51.0192308 C240.735315,54.4376887 243.783387,54.3617531 247.743576,51.0422826 C249.563745,49.5140787 252.637567,49.0245653 255.181467,48.9065939 C261.47955,48.6164114 267.863017,49.3635635 274.094691,48.6557352 C280.441564,47.935703 282.619533,51.157542 284.287908,56.280483 C286.399467,62.7661968 289.066699,69.0702075 291.27855,75.5260894 C291.781367,76.9932737 291.578072,78.7858962 291.382908,80.3900358 C290.901777,84.3413989 289.83651,88.2602182 289.740284,92.2115814 C289.597977,97.977263 290.51145,103.85956 283.795934,106.981055 C282.776748,107.455653 281.963567,108.975721 281.609834,110.174419 C280.312811,114.565123 278.263596,117.984937 273.746378,120.018927 C271.901814,120.848794 270.954458,123.671971 269.242713,126.092419 L269.242713,126.092419 Z" id="Shape" sketch:type="MSShapeGroup"></path>
            <path d="M299.360209,411.476029 C301.919017,408.444029 304.479181,405.412029 307.768496,401.516261 C305.563421,397.333023 307.866077,392.661628 311.635169,387.675642 C313.231713,385.563005 317.628309,380.478032 310.235143,378.839993 C311.991613,371.904089 313.594934,365.050902 315.505908,358.284497 C316.30147,355.464032 318.086401,352.780522 314.012367,351.061123 C313.712845,350.935016 313.435009,350.041417 313.582736,349.682079 C315.705138,344.529306 315.617043,339.323649 314.68053,333.90917 C314.473169,332.710472 316.308246,330.633091 317.698785,329.875091 C318.571599,329.399138 320.681802,330.266973 321.70912,331.148369 C335.417989,342.906182 350.212453,353.710733 362.216352,367.026583 C369.043003,374.598447 377.796891,377.822998 385.317456,384.041581 C379.985702,386.97595 374.747464,389.858791 369.507871,392.741631 C369.609519,393.34098 369.709811,393.941685 369.811458,394.54239 C372.561364,394.54239 375.408851,394.075928 378.038135,394.638665 C383.752083,395.860415 389.543284,397.155388 394.891301,399.400912 C396.600335,400.119589 397.722524,403.877045 397.883805,406.324612 C398.298527,412.587943 398.022046,418.896021 398.022046,424.371521 C392.224069,424.371521 386.144189,422.660258 381.837043,424.698315 C369.755891,430.411113 355.129484,428.886977 344.529676,438.93624 C339.391731,443.80561 339.012246,448.990927 340.196779,454.729488 C341.136003,459.274776 343.304484,463.566494 345.302198,468.986397 C339.70616,466.526626 334.522135,464.603828 329.729791,461.967778 C327.784934,460.899256 325.833301,458.465249 325.371143,456.330916 C323.923682,449.640447 322.141461,442.757428 322.40439,436.022211 C322.835375,424.926122 314.931261,418.860766 309.260682,411.500436 C308.401421,410.38581 304.017023,411.98995 301.263052,412.335728 C300.628771,412.05097 299.99449,411.763499 299.360209,411.476029 L299.360209,411.476029 Z" id="Shape" sketch:type="MSShapeGroup"></path>
            <path d="M769.631989,244.824508 C774.764513,234.997628 779.70865,225.478558 784.734106,216.004236 C785.240989,215.046905 786.10296,213.924143 787.044894,213.608197 C796.679728,210.378222 805.737203,203.832844 816.66906,207.548265 C819.332226,208.452712 821.519682,210.742984 823.94567,212.367463 C826.255103,213.914651 828.397834,216.015084 830.94851,216.851732 C849.369759,222.894036 868.04716,228.209528 886.225811,234.894572 C890.374387,236.420064 892.892536,242.383721 895.580097,245.610984 C890.59259,256.246036 883.978722,257.31049 874.276123,254.213403 C866.484499,251.725156 860.301616,255.566683 863.627524,264.650479 C864.986891,268.3659 865.683516,272.319975 866.935814,276.080143 C869.978464,285.195127 867.782877,293.223961 861.114797,301.446701 C857.136989,297.851964 852.57098,294.453846 848.914378,290.261116 C841.606596,281.883792 830.846862,279.482329 821.873415,274.058358 C805.605739,264.226054 788.520817,255.751098 771.799115,246.665946 C770.872089,246.161517 770.151069,245.274698 769.631989,244.824508 L769.631989,244.824508 Z" id="Shape" sketch:type="MSShapeGroup"></path>
            <path d="M750.60492,345.734784 C753.086476,329.445242 755.418948,314.149642 757.79208,298.586912 C750.771622,297.682465 745.571332,299.537463 740.083719,305.525528 C736.311917,309.63961 728.277693,309.924369 722.058218,311.586816 C721.448332,311.750891 719.645782,309.697918 719.354393,308.45176 C717.297046,299.639163 716.154527,291.029964 720.247536,282.129227 C722.359095,277.540547 722.078547,271.850801 722.950006,266.194955 C730.995072,264.894558 740.708513,263.192787 750.473456,261.874762 C752.144542,261.648311 754.692507,262.525639 755.726602,263.79756 C763.340682,273.16747 774.193931,277.242229 784.608063,282.081767 C798.211218,288.403406 811.798109,294.760301 825.398553,301.086007 C826.791802,301.735528 828.235198,302.280637 830.787229,303.347803 C828.820688,314.732719 826.767407,326.620708 824.769693,338.187327 C811.635473,337.227284 799.311722,337.121517 787.310533,342.709564 C782.515479,344.941528 776.648381,345.241202 771.213625,345.622236 C764.496754,346.092766 757.724315,345.734784 750.60492,345.734784 L750.60492,345.734784 Z" id="Shape" sketch:type="MSShapeGroup"></path>
            <path d="M297.171398,195.61146 C279.377653,199.379764 262.590897,202.935177 246.636295,206.314311 C230.864659,177.588959 210.644926,151.879335 206.874479,118.809381 C209.147318,117.925274 211.178914,117.532036 212.734799,116.452665 C216.533708,113.819327 218.79706,116.018748 220.375986,118.912436 C225.985576,129.190862 231.329527,139.615735 236.821206,149.959249 C238.469252,153.064472 238.93141,155.512039 242.74116,150.469102 C246.561754,145.412605 251.303951,141.809732 252.439693,134.655513 C253.298954,129.23561 264.024805,126.476165 269.696739,128.215903 C273.385868,125.269331 276.577602,122.909903 279.525381,120.275209 C280.796653,119.138887 281.571885,117.439828 282.558544,115.986204 C285.247461,112.025349 287.930957,108.057714 290.615808,104.092791 C291.132178,104.403313 291.649903,104.713835 292.166272,105.023002 C291.775946,103.424286 291.386974,101.824215 290.996648,100.224143 C291.343605,100.100748 291.691917,99.9759964 292.038874,99.8526011 C293.300659,102.932061 294.563799,106.011521 296.023458,109.57507 C293.074324,109.726941 290.493831,109.858472 288.067842,109.98458 C287.331914,114.299349 286.602762,118.563946 285.830241,123.087538 C296.797335,128.021996 308.665705,131.947596 321.64,125.093052 C322.290544,132.723224 322.943799,140.390007 323.69057,149.140229 C317.575453,149.140229 311.784252,148.790383 306.068948,149.289388 C303.249923,149.536179 300.463424,151.147098 297.849049,152.503091 C294.412006,154.286222 291.159284,156.425979 286.829097,159.009145 C291.514372,170.145914 285.156656,184.866572 297.171398,195.61146 L297.171398,195.61146 Z" id="Shape" sketch:type="MSShapeGroup"></path>
            <path d="M702.972871,710.792465 C692.938223,703.631467 694.204074,694.097481 693.08053,685.556082 C683.545989,683.496329 682.891378,677.840483 691.074685,663.114401 C696.707315,665.283989 702.518845,667.45629 708.273453,669.769614 C711.181928,670.938479 712.85437,671.369685 716.166725,668.726855 C722.607115,663.595778 730.389252,659.949513 738.03586,656.659875 C740.001046,655.812379 745.206756,657.878912 746.01045,659.816626 C748.462189,665.724687 750.325728,671.414433 760.06492,671.098487 C754.95408,680.259574 750.603564,688.032125 746.289642,695.825016 C745.761074,696.778279 745.075292,697.834597 745.06445,698.850236 C745.017014,703.754862 758.62559,713.329528 763.381341,711.786408 C768.610092,710.091417 773.806315,708.294726 779.642241,706.331249 C783.090126,716.532383 786.626106,726.658937 789.844946,736.885835 C790.288129,738.292 789.727034,740.938898 788.6699,741.741646 C782.194272,746.646272 773.593533,748.639581 769.114264,756.391792 C768.565367,757.342343 766.295238,757.298952 764.82067,757.708462 C759.619026,747.964297 759.619026,747.964297 749.588444,750.905445 C748.912149,748.594834 748.403911,746.208286 747.493149,743.98717 C746.945607,742.652873 745.911513,740.694819 744.851668,740.522608 C737.425974,739.315775 729.952845,737.951646 722.459387,737.688583 C709.766994,737.23975 709.758862,737.563832 705.535745,724.860891 C704.702235,722.356372 703.48653,719.921009 703.070453,717.352758 C702.639467,714.718064 702.972871,711.955907 702.972871,710.792465 L702.972871,710.792465 Z" id="Shape" sketch:type="MSShapeGroup"></path>
            <path d="M263.427117,419.056029 C263.813378,449.107542 262.515,478.897349 243.372731,504.708673 C239.167232,507.502018 235.582461,510.875728 232.486954,516.630562 C228.655519,523.753592 221.183745,528.961961 215.120129,534.827986 C206.806713,542.870379 201.733822,545.570161 190.995774,536.692476 C186.441963,532.926884 181.051931,530.171506 175.525014,526.626941 C183.193307,511.336766 190.751819,496.111678 198.451284,480.955746 C206.176499,465.748286 214.247315,450.713038 221.723155,435.38625 C224.124748,430.46264 226.375903,429.281571 232.000401,430.474844 C238.714562,431.899993 246.046739,431.975928 252.851705,430.931814 C258.557521,430.055843 262.119252,425.250204 263.427117,419.056029 L263.427117,419.056029 Z" id="Shape" sketch:type="MSShapeGroup"></path>
            <path d="M18.2111777,269.687993 C19.5949398,268.119109 21.9816246,266.627517 22.2513295,264.818623 C22.6403009,262.211048 22.357043,258.522748 20.7455903,256.88742 C19.2750888,255.395828 15.6605014,255.827034 12.9824269,255.771438 C10.1308739,255.711775 5.73563324,257.254894 4.76117192,255.987041 C3.17953582,253.93 3.87073926,250.14678 3.54682235,247.097152 C2.96133238,241.597245 2.35280229,236.101406 1.70632378,230.608279 C1.60332092,229.737732 1.14793983,228.907864 1.03816046,228.037317 C-0.866037249,212.90986 0.356444126,211.507764 15.3636905,211.507764 C21.6807479,211.507764 28.0289771,211.125374 34.2985989,211.673195 C37.3656447,211.940326 41.1862378,213.124107 43.1202521,215.280136 C58.3917822,232.29649 73.148298,249.773882 88.4455788,266.765828 C90.8376848,269.422218 95.1570287,270.342937 98.1983238,271.872497 C90.7523009,272.404047 82.8549628,272.969496 74.9562693,273.533589 C75.2408825,274.086834 75.5254957,274.640079 75.8087536,275.193324 C72.8203152,277.912089 69.8318768,280.632211 66.2769226,283.866254 C68.4548911,291.263195 70.9147622,299.621535 73.0886648,307.007628 C66.8217536,310.633553 61.7339542,314.437113 56.0159398,316.445338 C53.8393266,317.208762 48.2514212,314.418129 47.619851,312.252608 C45.6899026,305.646211 40.4719943,304.36073 35.4329857,302.607431 C20.6615616,297.46415 20.8241977,297.55229 20.7483009,281.554286 C20.7279713,277.484952 19.0514642,273.423753 18.2111777,269.687993 L18.2111777,269.687993 Z" id="Shape" sketch:type="MSShapeGroup"></path>
            <path d="M633.84033,253.390315 C658.022963,244.490934 682.231347,235.655284 706.37061,226.63522 C711.142625,224.852089 715.551418,224.624283 719.113149,228.469878 C728.859117,238.999163 738.384172,249.734558 747.491794,259.829925 C742.680476,260.621825 735.317126,261.499152 728.117768,263.111428 C720.439989,264.832182 712.679536,266.638365 705.37853,269.48595 C688.944152,275.897084 672.935338,283.420132 656.397957,289.538372 C650.751774,291.627957 644.059298,290.991996 637.82898,291.375742 C628.695607,291.938479 619.548682,292.295106 610.400401,292.741227 C607.422805,283.601835 604.503487,274.650927 601.405269,265.141349 C610.500693,261.847642 619.685567,258.520036 629.605014,254.928011 C628.354072,253.475742 627.363347,252.324504 626.371266,251.171911 C626.5461,250.613242 626.720934,250.055928 626.894413,249.497259 C629.160476,250.237631 631.426539,250.978004 633.692602,251.718376 C633.741393,252.274333 633.790183,252.833002 633.84033,253.390315 L633.84033,253.390315 Z" id="Shape" sketch:type="MSShapeGroup"></path>
            <path d="M324.892722,151.57288 L324.892722,125.046948 C325.547332,124.771682 326.201943,124.497771 326.857908,124.222504 C329.504811,128.949496 332.151713,133.676487 334.638691,138.116007 L351.321089,138.116007 C349.572751,135.618268 348.485799,134.065657 346.896032,131.791657 C352.0909,131.056708 356.892731,130.378712 362.311223,129.613932 C366.21449,138.141771 369.777576,146.269592 373.686264,154.227914 C374.721713,156.337839 376.480894,158.747438 378.503003,159.594934 C384.470393,162.094029 386.01137,167.056962 387.538794,173.662004 C381.152616,175.451914 374.939917,177.193009 367.771731,179.199878 C371.245367,181.429131 374.514352,183.526852 377.781983,185.624572 C377.692533,186.118154 377.601728,186.613091 377.512278,187.106673 C372.152063,187.106673 366.648186,186.316129 361.462805,187.26668 C349.537513,189.449828 348.728398,190.698698 354.103521,201.708004 C356.963206,207.565893 355.832885,212.006769 351.729034,215.288272 C349.753006,216.86936 345.401135,215.228608 342.175519,215.551335 C337.716579,215.997456 333.204782,216.552057 328.900347,217.731771 C323.457458,219.224719 320.395834,216.375778 318.205668,212.376955 C314.725255,206.015993 311.77612,200.365571 303.928928,197.033896 C297.680991,194.380218 291.878948,188.114175 292.185246,179.007327 C292.38312,173.115538 290.927527,167.168154 290.190244,161.062118 C302.435387,152.729542 302.435387,152.729542 324.892722,151.57288 L324.892722,151.57288 Z" id="Shape" sketch:type="MSShapeGroup"></path>
            <path d="M396.143599,381.743174 C400.960338,372.20512 403.811891,371.608483 417.366255,372.713617 C427.051235,373.504161 436.871745,373.129907 446.60416,372.670225 C455.702295,372.241732 464.759771,370.97659 473.841642,370.146723 C489.907378,368.678182 503.666393,376.385646 518.288734,380.97297 C526.74039,383.623936 534.340917,387.389528 539.869189,393.787102 C551.439393,407.178887 565.957375,418.862122 570.105951,437.220909 C571.763484,444.555474 571.154954,452.402605 571.58594,460.016504 C571.924765,466.034401 572.347619,472.049585 572.590218,478.071549 C572.739301,481.765274 572.618679,485.46849 572.618679,490.895174 C566.601143,484.988469 568.74794,479.131936 569.189768,474.151374 C570.274009,461.974558 569.135556,450.656086 559.733834,441.813657 C550.937931,433.543456 542.182688,425.143081 532.648146,417.789531 C528.553782,414.631424 522.648736,412.993385 517.364418,412.352 C495.29741,409.677982 473.123332,407.882648 451.057679,405.204562 C445.736768,404.559109 440.516149,402.133238 435.521865,399.912122 C422.428304,394.0922 409.490602,387.930569 396.143599,381.743174 L396.143599,381.743174 Z" id="Shape" sketch:type="MSShapeGroup"></path>
            <path d="M225.473272,254.300186 C214.916834,260.309946 206.34049,267.637732 194.046556,261.800182 C186.775367,258.347825 178.852278,256.294852 171.323582,253.350991 C168.019358,252.057374 165.155607,250.961732 162.718777,254.686644 C162.299989,255.328029 161.204905,255.661603 160.356487,255.863646 C150.938501,258.105102 142.625086,262.461907 135.478585,268.967961 C132.934685,271.283996 131.725756,271.723338 128.700725,268.615403 C124.816433,264.627428 119.233948,262.259864 114.295232,259.341767 C108.87945,256.14298 103.366086,253.11098 96.7318883,249.346744 C102.95814,244.02176 107.129756,238.812036 112.549605,236.322433 C117.14814,234.209796 117.767513,231.88698 117.581837,227.846122 C117.394805,223.763227 117.724143,219.651857 117.443596,215.578454 C117.310777,213.666504 116.275327,211.815574 115.575991,209.719209 C120.873862,208.181513 126.614917,205.481732 132.496923,205.122394 C137.511536,204.815939 143.018123,206.467538 147.719662,208.569327 C155.129092,211.880662 161.961163,212.222372 169.430226,208.919174 C171.806069,207.868279 176.000725,207.903535 177.918476,209.354447 C188.365135,217.257174 198.753516,225.330755 208.373441,234.203016 C214.613246,239.95785 219.505883,247.1758 225.473272,254.300186 L225.473272,254.300186 Z" id="Shape" sketch:type="MSShapeGroup"></path>
            <path d="M386.071003,663.721886 C371.790198,680.823667 369.286957,681.943717 358.008143,677.134011 C358.322573,664.73888 369.209705,660.316987 376.274888,653.080054 C372.124957,645.566497 368.274547,638.22922 364.003994,631.145513 C363.037665,629.54273 360.606255,628.824054 358.370009,627.390769 C357.147527,623.278043 355.320582,618.13883 354.18484,612.850458 C353.695576,610.57239 354.636155,607.986512 354.857069,606.135581 C360.484278,605.838619 365.067905,605.433177 369.652888,605.404701 C373.613077,605.378937 377.65594,606.371524 381.513126,605.834551 C385.90159,605.224354 390.90265,603.952433 386.853011,597.097889 C389.365739,596.760247 391.299754,596.499896 393.186332,596.24497 C394.54841,588.499538 395.905066,580.779871 397.543625,571.460132 C401.072828,576.665789 404.016542,581.007678 407.240802,585.765857 C408.945771,584.832934 410.759163,583.840347 411.21861,583.589488 C412.736547,587.573395 414.220602,592.010204 416.100404,596.272089 C418.3109,601.278415 422.032556,606.172193 415.055467,610.53171 C414.411699,610.93444 414.113533,612.722995 414.395436,613.642358 C416.645235,621.002687 417.286292,627.586032 406.397805,630.174623 C416.900032,633.096787 425.9941,632.166576 436.001642,629.110168 C436.001642,631.729946 435.628934,634.15175 436.099223,636.397274 C436.652186,639.033324 437.270203,642.202279 439.041582,643.92439 C443.055983,647.829649 442.463716,652.770887 442.023244,657.044977 C441.731854,659.877646 439.121544,662.824218 434.036456,660.91498 C428.101593,658.685728 421.483659,657.865352 415.08935,657.379907 C407.137799,656.773778 405.416567,662.645227 404.851407,669.034665 C404.734851,670.354047 404.833788,671.691055 404.833788,673.967767 C397.200734,672.628047 390.440493,671.175778 386.071003,663.721886 L386.071003,663.721886 Z" id="Shape" sketch:type="MSShapeGroup"></path>
            <path d="M723.024547,650.010086 C724.522155,653.196669 725.65112,655.594064 726.59441,657.600934 C721.528295,661.019392 716.529946,664.391746 711.953095,667.479342 C706.588814,665.671803 701.239441,664.050036 696.043218,662.037742 C693.618585,661.099395 691.146516,659.756962 689.284332,657.981968 C682.525447,651.541002 676.034911,644.816633 669.402069,638.240068 C665.845759,634.711775 664.185516,631.157717 665.852536,625.714762 C667.954607,618.841234 668.701378,611.550061 670.110891,604.027013 C671.407914,605.121299 672.848599,606.334912 674.286573,607.548526 C673.428668,606.513903 672.570762,605.479281 671.714212,604.443302 C684.11386,593.730959 696.528415,583.033531 708.896891,572.285932 C710.764496,570.661453 712.417963,568.791538 714.177143,567.040952 C717.406825,563.824537 721.54998,557.397131 723.698132,558.005971 C729.935226,559.775542 735.371338,564.36829 742.24949,568.537968 C736.002908,574.169406 730.818883,578.843513 724.737648,584.325792 C728.005278,585.826877 730.24288,586.856075 734.123106,588.640562 C731.443676,591.623746 728.635493,593.994021 726.838364,596.97585 C725.077828,599.895302 724.854203,603.755814 723.044877,606.629163 C720.49149,610.683581 719.327287,613.626086 721.495768,618.949714 C724.336479,625.919517 723.656117,634.249381 725.85035,641.588014 C727.074186,645.688537 727.49433,648.10356 723.024547,650.010086 L723.024547,650.010086 Z" id="Shape" sketch:type="MSShapeGroup"></path>
            <path d="M596.596662,407.799932 C593.259911,408.750483 590.806817,409.450175 587.567648,410.373606 C590.051914,404.438426 593.228739,401.217943 599.24492,399.415828 C607.37808,396.980465 615.233404,393.180973 622.683493,389.024855 C629.60908,385.161631 634.954387,386.723735 639.859221,391.833116 C644.253106,396.409592 648.615819,397.836097 655.334046,396.40688 C662.700106,394.840708 670.663854,395.632608 678.32537,396.089578 C683.155662,396.378404 689.245029,404.42351 690.852415,409.862397 C694.02653,420.599148 690.771097,431.434887 692.362221,441.928916 C690.100223,443.210329 688.246172,444.259868 686.099375,445.477549 C683.800785,443.07473 681.224358,437.926025 677.822553,445.435513 C677.558269,446.019946 674.40855,446.217921 673.591304,445.485685 C665.753599,438.47249 657.170479,442.829295 649.080688,444.046977 C639.319811,445.518229 631.11753,445.930451 621.622292,439.859671 C609.089825,431.847109 601.242633,421.701571 596.596662,407.799932 L596.596662,407.799932 Z" id="Shape" sketch:type="MSShapeGroup"></path>
            <path d="M218.336258,294.18536 C210.986461,299.941549 205.660129,304.111227 200.005814,308.5399 C203.629888,313.645213 202.091622,316.772132 196.922504,320.031939 C194.304063,321.683538 193.577622,326.338662 191.802178,330.041878 C188.644327,330.950394 184.479487,332.227739 180.263146,333.313889 C178.990519,333.642039 177.204232,333.994597 176.29347,333.383045 C171.555338,330.195106 166.634241,331.620254 161.622338,332.079936 C158.334378,332.382322 153.813095,333.06981 151.854685,331.326004 C147.111132,327.102086 143.102152,321.817782 139.839943,316.339571 C139.110791,315.115109 142.047728,310.171159 144.35445,308.96297 C150.752825,305.606887 157.709585,303.317971 164.839822,300.448691 C159.719496,295.248458 151.014398,297.876372 146.94443,290.792665 C143.527716,284.843925 138.667607,279.726408 134.575954,274.40956 C141.990805,266.253263 150.717587,262.651746 159.60565,258.560716 C167.111307,255.108358 171.853504,256.034501 178.383344,259.889589 C183.50367,262.913453 190.12567,263.382626 196.072731,265.013886 C204.378014,267.291953 207.969562,271.646047 208.292123,280.362369 C208.52659,286.686719 206.564115,294.000945 218.336258,294.18536 L218.336258,294.18536 Z" id="Shape" sketch:type="MSShapeGroup"></path>
            <path d="M620.246662,89.4643399 C635.972218,82.3480894 649.537424,75.3009946 663.80061,70.1970376 C669.599943,68.1223685 676.942963,69.9502469 683.525659,70.5984114 C689.497115,71.1869123 695.392673,72.583585 701.160834,74.2650161 C688.931954,79.4923685 683.987817,89.3165367 681.279926,100.946887 C679.831109,107.169538 677.783249,113.262014 676.528241,119.515853 C675.780115,123.235342 675.918355,127.158229 675.879052,130.990265 C675.796378,139.378436 676.123006,147.780168 675.717771,156.150712 C675.567332,159.265428 673.840679,162.304208 672.322742,166.940347 C667.957318,161.135342 664.639542,156.308007 660.85012,151.880691 C659.299656,150.069084 656.780152,149.049377 654.623868,147.807288 C653.149301,146.958436 651.247814,146.672322 650.034819,145.580748 C643.370805,139.579123 636.632249,133.627671 630.387023,127.205689 C627.082799,123.808927 624.364066,122.543785 620.104355,125.380522 C618.681289,126.328361 616.327132,125.87546 612.810126,126.218526 C617.57943,117.244565 621.310573,110.221878 625.670576,102.018122 C626.65859,101.912354 629.253991,101.63302 633.510991,101.174694 C628.833848,97.0456959 624.94549,93.613678 620.246662,89.4643399 L620.246662,89.4643399 Z" id="Shape" sketch:type="MSShapeGroup"></path>
            <path d="M568.672043,197.139664 C581.256011,192.933374 593.498444,191.226179 606.295195,193.882569 C623.766378,197.511206 641.314814,200.750673 657.751903,203.946748 C655.634923,215.880841 653.250948,229.314662 650.694851,243.72073 C645.876756,243.670558 640.185848,252.785542 631.522765,245.743871 C630.064461,248.97927 619.989155,244.791964 623.263562,254.350358 C616.465372,256.707073 609.283633,259.198032 601.109814,262.033413 C599.238143,255.163953 597.760865,248.560268 595.536817,242.219646 C594.752097,239.983614 592.469771,237.407227 590.304,236.681771 C583.259146,234.323699 581.605679,227.671199 578.04937,222.55775 C577.683438,222.03298 578.52237,220.407145 579.128189,219.513546 C581.949926,215.362852 584.884152,211.290805 588.810458,205.73259 C582.528639,206.870268 577.732229,207.73946 571.997951,208.779506 C570.996384,205.276977 569.951447,201.622576 568.672043,197.139664 L568.672043,197.139664 Z" id="Shape" sketch:type="MSShapeGroup"></path>
            <path d="M404.668441,389.012651 C413.892619,393.145717 423.535585,396.556039 432.236616,401.593553 C443.175249,407.926039 455.149332,407.921971 466.925542,409.410852 C486.303633,411.861131 505.958206,412.864565 524.996117,416.864744 C532.367599,418.414644 538.379713,426.45975 545.013911,431.548791 C539.135971,438.670465 534.254178,445.107363 528.720484,450.92186 C527.35163,452.360569 523.604223,452.643971 521.397794,451.975467 C512.543613,449.298737 503.864266,448.746848 494.863713,451.302894 C492.552926,451.959195 489.697307,450.795753 487.111393,450.368615 C481.512645,449.442472 475.946424,447.803077 470.331413,447.647138 C462.762057,447.435603 455.165596,448.623453 447.573201,448.68854 C441.048782,448.744136 438.658032,443.854426 437.577857,438.423674 C436.536986,433.18683 435.69941,427.85371 435.483917,422.535506 C435.406665,420.658812 437.423352,418.691267 438.504883,416.775249 C441.76167,411.016347 440.45245,408.651496 434.115063,407.999263 C432.008926,407.782304 429.916341,406.534791 428.009433,405.428301 C421.025567,401.373882 414.097269,397.217764 407.205564,393.00605 C405.908542,392.21415 404.874447,390.992401 403.718375,389.968626 C404.032805,389.649968 404.349946,389.331309 404.668441,389.012651 L404.668441,389.012651 Z" id="Shape" sketch:type="MSShapeGroup"></path>
            <path d="M150.019607,336.207578 C157.735335,335.935023 165.583883,331.317868 174.08433,335.804848 C176.275851,336.96151 180.067983,336.508608 182.552249,335.449578 C197.413123,329.113023 211.00137,334.699714 224.471705,339.849775 C227.681057,341.076948 229.78584,345.063567 232.589957,347.56673 C233.498009,348.377614 235.017301,348.506433 235.865719,348.808819 C231.195352,359.858805 226.519564,370.925063 221.647258,382.453714 C219.202295,381.480111 217.050077,380.623123 214.666103,379.673928 C213.25388,380.920086 211.756272,382.243535 210.444341,383.402909 C207.354255,382.067256 204.365817,380.940426 201.527817,379.511209 C196.234011,376.846683 194.98849,379.092208 194.645599,384.202945 C194.365052,388.379403 192.836272,392.473145 192.126095,395.476669 C176.74343,389.715055 161.821567,384.127009 146.464653,378.374887 C147.859258,375.097453 148.133029,372.694633 149.472066,371.607127 C156.077802,366.241463 154.15463,359.66083 152.811527,352.973073 C151.739484,347.644021 151.010332,342.245814 150.019607,336.207578 L150.019607,336.207578 Z" id="Shape" sketch:type="MSShapeGroup"></path>
            <path d="M421.035054,321.966941 C427.013287,317.193846 432.992874,312.419395 439.441395,307.272047 C443.886782,316.392454 447.993344,324.814526 452.965943,335.017016 C438.816602,334.043413 426.975338,333.229818 415.184221,332.417578 C412.971014,339.447045 410.851324,346.340912 408.623209,353.199524 C406.926372,358.425521 403.7631,358.712991 399.446467,355.987445 C388.807355,349.267145 378.044911,342.743463 367.386825,336.052995 C357.517524,329.858819 347.718699,323.549385 336.91153,316.667721 C362.204155,308.511424 385.862287,300.881252 409.974444,293.105989 C416.955599,303.559338 418.344782,304.183095 429.734731,300.169356 C426.14996,307.404934 422.912146,313.939463 419.675688,320.472637 C420.129713,320.971642 420.582384,321.469292 421.035054,321.966941 L421.035054,321.966941 Z" id="Shape" sketch:type="MSShapeGroup"></path>
            <path d="M276.677894,378.266408 C278.545499,376.792444 280.751928,375.049993 284.405819,372.165796 C276.297054,364.57766 268.883559,357.152243 260.942851,350.345159 C252.798848,343.363152 252.670095,331.046669 261.138014,320.697732 C264.074951,317.108419 266.772,313.323843 269.622198,309.661306 C272.564556,305.880798 275.608562,305.375013 279.999736,308.068014 C288.834943,313.486562 298.045567,318.294912 307.15861,323.252422 C309.63339,324.598923 312.307398,325.575238 314.871628,326.714272 C310.433017,338.175123 309.946464,352.822558 313.829401,354.978587 C311.79916,362.386376 309.772986,369.795521 307.753587,377.207377 C307.582819,377.835202 307.122017,378.789821 307.375458,379.071868 C313.402481,385.78132 304.663501,389.774719 304.400573,395.311238 C304.351782,396.321453 303.160473,397.399467 303.335307,398.27815 C304.273175,402.986157 302.122312,402.634955 298.656808,401.791528 C291.407304,400.024669 287.050011,395.132247 283.488281,389.080451 C281.475659,385.666061 279.270585,382.36693 276.677894,378.266408 L276.677894,378.266408 Z" id="Shape" sketch:type="MSShapeGroup"></path>
            <path d="M424.299974,209.254104 C416.394504,213.918719 410.462352,223.666952 397.424358,223.604576 C397.424358,213.158007 398.164352,202.735846 397.157364,192.48454 C396.514951,185.945943 393.996802,179.308358 391.036825,173.352837 C387.389711,166.010136 382.40898,159.329159 377.749456,151.956626 C385.039619,149.016834 393.777244,145.493964 403.06512,141.747356 C403.336181,145.049199 403.517791,147.258111 403.78343,150.496222 C410.097777,150.496222 416.538166,150.296891 422.956871,150.604701 C425.176854,150.711825 427.757347,151.562032 429.455539,152.950569 C441.069112,162.447943 446.540461,175.196987 448.076017,189.82815 C448.722496,195.98029 438.408656,210.230419 432.200023,211.233853 C429.917696,211.602683 427.326361,210.073123 424.299974,209.254104 L424.299974,209.254104 Z" id="Shape" sketch:type="MSShapeGroup"></path>
            <path d="M461.569393,449.686551 C470.579433,451.631045 478.559444,447.751549 486.509639,453.602658 C489.906023,456.103109 497.234135,452.950426 502.777315,452.934154 C507.661819,452.920594 512.749619,452.96941 517.390169,454.268451 C528.079427,457.266551 534.034619,451.711048 539.293186,443.777134 C541.640567,440.233925 544.562596,437.069038 547.345029,433.578712 C555.110903,441.280751 564.44486,447.411195 565.759501,458.354057 C566.957587,468.327385 566.014298,478.556995 566.014298,489.856483 C556.735908,491.395535 546.42749,493.105442 535.97812,494.838401 C532.844665,491.838945 530.018862,488.313363 526.431381,485.943088 C523.11767,483.755871 519.049057,482.610057 515.201358,481.351696 C506.238754,478.422751 496.228501,477.268801 488.493799,472.431975 C481.477407,468.043982 474.883868,467.874483 467.624877,467.749732 C466.31159,467.72668 464.998304,467.616844 463.622673,467.544977 C462.951799,461.712852 462.329716,456.29566 461.569393,449.686551 L461.569393,449.686551 Z" id="Shape" sketch:type="MSShapeGroup"></path>
            <path d="M272.99012,298.859467 C265.010109,301.930791 255.949923,305.194665 247.091676,308.934494 C243.635659,310.393542 240.355831,312.62415 237.596438,315.155789 C236.830693,315.859549 237.862077,320.456365 238.664415,320.636712 C245.98033,322.291023 243.637014,327.515664 243.004089,331.841281 C242.402335,335.960787 241.133774,339.981306 239.99261,344.731349 C225.82565,339.293818 213.188825,328.913692 196.671774,330.821574 C195.693246,326.186791 195.803026,323.33785 200.561487,320.761463 C203.384579,319.231903 204.144903,314.081843 206.119576,310.728472 C207.785241,307.898515 209.482077,304.890923 211.86063,302.728114 C214.53735,300.292751 217.992011,298.714376 221.51986,296.505463 C217.368573,292.522912 213.183404,290.017038 211.363235,286.340941 C209.510539,282.602469 210.106871,277.691063 209.389917,273.33019 C209.080908,271.450784 208.170146,269.670365 207.428797,267.54688 C214.628155,263.485682 221.645903,259.333631 228.894052,255.635839 C230.048768,255.047338 232.804095,255.968057 233.873427,257.090819 C246.911421,270.805331 259.773226,284.687986 272.99012,298.859467 L272.99012,298.859467 Z" id="Shape" sketch:type="MSShapeGroup"></path>
            <path d="M434.547404,298.704884 C431.632152,297.666193 429.161438,295.865435 427.932181,296.494615 C419.082066,301.023631 417.452994,300.626326 412.956106,291.485578 C412.66065,290.884873 412.38688,290.27332 412.233731,289.94517 C444.899192,260.69776 479.894415,233.930462 507.03296,198.638036 C512.151931,204.254558 517.443026,210.058208 522.929284,216.07746 C512.296948,225.626361 502.014281,234.862029 490.822206,244.91536 C495.382794,244.165496 498.655845,243.627166 502.716327,242.958662 C500.2551,250.233564 499.694006,256.816909 496.205461,260.891667 C492.276444,265.480347 486.069166,269.570021 480.216977,270.770075 C465.577017,273.769531 454.951458,282.972655 443.646894,291.347267 C440.106848,293.969757 436.785006,296.886497 434.547404,298.704884 L434.547404,298.704884 Z" id="Lower-Lawrenceville" sketch:type="MSShapeGroup"></path>
            <path d="M666.068029,237.946912 C676.07286,217.859234 685.726668,198.476673 695.541756,178.767317 C688.240751,175.02342 681.603842,171.619878 675.025212,168.244812 C676.578387,163.803936 677.997387,159.741381 679.244264,156.1819 C697.136946,164.475152 715.649,172.989431 734.064828,181.707109 C735.737269,182.499009 736.790338,184.602154 738.129375,186.097814 C736.648032,187.383295 735.367272,189.169138 733.647395,189.859338 C728.750693,191.82824 724.515378,194.198515 723.416229,199.863853 C738.110401,212.254916 746.105321,222.81132 733.071393,239.076454 C729.577427,235.302726 726.347745,231.423231 722.706052,227.979009 C717.795797,223.334733 712.817777,220.89259 705.396149,224.263589 C694.204074,229.34585 682.342481,232.955503 670.746527,237.131961 C669.56606,237.557742 668.243287,237.58215 666.068029,237.946912 L666.068029,237.946912 Z" id="Shape" sketch:type="MSShapeGroup"></path>
            <path d="M871.98702,288.73698 C869.574585,278.191424 867.332917,268.39302 864.709054,256.913184 C870.222418,257.203367 874.633923,256.644698 878.526347,257.814919 C885.34351,259.862469 890.534312,259.383803 894.421315,252.671639 C895.581453,250.668837 898.170077,249.494547 900.155593,247.898544 C897.68488,244.100408 895.796946,241.195871 893.731467,238.020136 C905.231195,238.906955 904.854421,231.385263 904.716181,223.856791 C906.338476,228.433267 907.963481,233.011098 909.755189,238.068952 C914.37541,233.941309 917.763662,230.913377 921.645244,227.446104 C923.412556,234.455231 923.481676,240.436515 915.657524,245.657088 C926.247845,249.615231 935.722754,253.155728 945.194951,256.694869 C943.464232,265.789513 941.419083,274.564143 940.269788,283.454032 C939.739865,287.542351 938.430645,289.150558 934.474521,288.796644 C924.061745,287.865077 913.40637,288.035932 903.298536,285.763288 C893.06737,283.462168 884.070883,287.239964 874.539052,288.410186 C873.673014,288.514597 872.806977,288.629857 871.98702,288.73698 L871.98702,288.73698 Z" id="Shape" sketch:type="MSShapeGroup"></path>
            <path d="M596.007106,363.271839 C594.495946,378.967456 601.581458,396.116698 583.195447,406.824973 C578.160504,401.253199 572.937175,395.36819 567.571539,389.61878 C566.351768,388.311603 564.068086,386.230154 563.23051,386.611188 C555.198997,390.258809 551.550527,383.374433 546.820527,379.844784 C536.45112,372.107488 525.980066,364.97361 512.676433,363.210819 C509.079464,362.734866 505.670883,360.83512 501.680877,359.411327 C502.50761,354.613825 503.351963,349.711911 504.260014,344.435742 C508.813825,346.298877 513.190092,348.278626 517.696467,349.88819 C523.865797,352.090322 529.057954,351.943875 533.870628,345.904283 C536.571742,342.515657 541.900785,339.600272 546.085954,339.547388 C549.277688,339.508064 553.361209,343.738762 555.606943,347.047385 C563.425673,358.569256 575.178842,362.359256 587.812957,364.585796 C590.045138,364.98039 592.544312,363.875256 596.007106,363.271839 L596.007106,363.271839 Z" id="Shape" sketch:type="MSShapeGroup"></path>
            <path d="M571.305393,229.180419 C572.571244,227.771542 573.837095,226.362665 575.543418,224.464275 C578.221493,228.563442 579.879026,234.395567 583.069404,235.411206 C596.085713,239.553764 594.71957,251.519045 597.923501,260.667928 C602.211673,272.905764 604.60649,285.810748 608.902794,298.045871 C610.968272,303.929524 609.860991,308.120898 606.652994,312.622794 C604.354404,315.847345 602.171014,319.154612 600.631393,321.408272 C595.300994,320.030583 590.794619,318.865785 586.288244,317.700987 C586.126963,318.254233 585.965682,318.806122 585.804401,319.359367 C584.865178,317.295546 583.923244,315.231725 582.681788,312.504823 C578.194387,314.503556 574.037679,316.351775 569.502842,318.370848 C563.382304,312.804497 556.711513,307.307302 546.233682,313.49063 C545.408304,311.703431 543.29539,309.028057 543.901209,308.065302 C545.364934,305.735707 547.991507,304.048852 550.355152,302.399964 C552.279679,301.054819 556.041994,300.456826 556.348292,298.978794 C558.501865,288.594601 567.327585,284.069653 574.232842,278.09786 C580.242246,272.903052 584.069616,264.676243 582.376845,256.730125 C581.460662,252.424848 580.989017,247.978547 579.610676,243.830565 C577.908418,238.70898 575.472943,233.831474 573.355963,228.8482 C572.671536,228.960748 571.988464,229.070583 571.305393,229.180419 L571.305393,229.180419 Z" id="Shape" sketch:type="MSShapeGroup"></path>
            <path d="M691.954275,179.275814 C687.632221,187.920268 683.479579,196.224369 679.398768,204.384733 C678.695367,204.517621 678.111232,204.825431 677.851014,204.650508 C668.39508,198.238018 657.6489,199.805546 647.11008,199.082801 C636.846387,198.379041 626.707381,195.850114 618.681289,194.490054 C617.178261,189.795606 616.496544,186.763606 615.246957,183.987889 C613.509461,180.124665 612.873825,177.096733 615.763327,172.958243 C625.075599,159.624766 645.092037,152.827174 660.247011,158.652519 C661.251289,159.038977 662.571352,159.395603 663.070103,160.191571 C669.78833,170.882218 680.965496,174.902737 691.954275,179.275814 L691.954275,179.275814 Z" id="Shape" sketch:type="MSShapeGroup"></path>
            <path d="M802.217487,457.789964 C790.106519,458.54254 779.349496,458.325581 768.936719,460.11278 C758.883097,461.837603 749.226579,465.79439 739.289513,468.36264 C737.638756,468.788422 735.306284,467.33073 733.613513,466.239156 C733.240805,465.997789 733.946917,463.426826 734.670648,462.243045 C739.263762,454.744404 744.813719,448.81736 753.123069,444.517506 C758.065851,441.96146 760.13404,434.112973 763.953278,428.98732 C765.494255,426.920787 768.848625,426.185839 770.331324,424.100322 C772.318195,421.302909 773.291301,417.782751 774.454149,415.130429 C781.562702,412.436072 788.701072,409.162705 796.178266,407.173463 C799.162639,406.380208 802.934441,408.298937 806.282034,409.219657 C808.129309,409.728154 809.84241,410.727521 811.223461,411.333649 C808.137441,427.261141 804.997209,443.451696 802.217487,457.789964 L802.217487,457.789964 Z" id="Shape" sketch:type="MSShapeGroup"></path>
            <path d="M437.354232,449.17263 C444.991352,449.674347 451.502218,450.101485 458.648719,450.569302 C459.861713,456.741782 461.122143,463.166476 462.526235,470.312558 C465.830458,469.936948 469.453178,469.580322 473.063699,469.101657 C478.45102,468.388404 481.078948,471.721435 480.520564,476.0918 C479.143579,486.870587 476.832791,497.531403 474.576215,510.009249 C469.737791,506.146025 466.731734,503.747274 463.649779,501.284791 C462.8881,504.743928 462.070854,508.456637 461.011009,513.269055 C450.005966,511.168623 439.277404,509.091242 428.536645,507.083016 C422.601782,505.97517 421.586662,502.586544 423.87712,497.506995 C427.760057,488.891016 431.893725,480.371313 435.360585,471.591259 C436.778229,467.997878 436.978814,463.845828 437.285112,459.912093 C437.595476,455.917338 437.354232,451.877835 437.354232,449.17263 L437.354232,449.17263 Z" id="Shape" sketch:type="MSShapeGroup"></path>
            <path d="M755.165507,258.608175 C748.876911,253.007925 743.913799,249.109445 739.685261,244.53297 C738.244576,242.972222 737.432751,239.011367 738.395014,237.324512 C747.369817,221.589571 740.560785,212.452891 730.454307,201.891063 C726.629648,197.89224 726.748914,195.896218 732.145722,193.912401 C735.245295,192.774723 738.519702,192.094014 741.573195,190.858705 C746.651507,188.80302 751.834178,186.85039 756.566888,184.143828 C761.32806,181.422351 765.591837,177.831682 771.041501,173.931846 C765.431911,187.337191 773.369908,197.027116 778.885983,207.252658 C781.904238,212.846129 782.443648,217.689735 778.586461,223.242526 C770.655241,234.662698 763.198375,246.415088 755.165507,258.608175 L755.165507,258.608175 Z" id="Shape" sketch:type="MSShapeGroup"></path>
            <path d="M380.321817,426.236011 C385.992395,426.905871 391.661619,427.575732 398.024756,428.326952 C398.024756,441.930272 398.279553,455.172898 397.891937,468.397896 C397.74963,473.256419 389.399622,477.577968 384.25761,477.470844 C378.551794,477.352873 372.646748,477.872218 367.155069,479.336691 C362.987519,480.445893 361.010135,479.159055 358.760335,476.215195 C356.399401,473.126243 354.056086,469.67253 350.900946,467.607352 C343.280089,462.621367 341.317613,455.247478 342.873499,447.438315 C343.593163,443.828662 347.688883,439.743055 351.272298,438.09688 C358.146384,434.940129 365.786215,433.485148 373.028943,431.080973 C375.564711,430.238902 377.861946,428.682222 380.26896,427.452336 C380.286579,427.04825 380.304198,426.642809 380.321817,426.236011 L380.321817,426.236011 Z" id="Shape" sketch:type="MSShapeGroup"></path>
            <path d="M80.171467,421.957853 C69.5337106,422.839249 60.2959799,423.982351 51.0311433,424.277957 C39.0136905,424.661703 35.1944527,419.801825 36.9604097,406.479195 C54.7162063,409.827141 71.0841748,404.202483 87.351851,397.86186 C86.8612321,406.080533 94.4780229,407.432458 98.9627135,410.631245 C110.137169,418.604483 111.304083,430.541288 112.973814,442.244862 C113.212347,443.918157 108.818461,446.383352 106.382986,448.238351 C105.61453,448.82414 104.213149,448.859395 103.149238,448.734644 C95.0391175,447.786805 87.7204928,448.212587 84.7090143,457.789964 C84.3539255,458.919506 82.8414097,459.68293 81.9062521,460.577886 C76.1787507,455.982426 70.5135931,451.435782 64.229063,446.392844 C75.8019771,442.147231 77.7265043,432.417982 80.171467,421.957853 L80.171467,421.957853 Z" id="Shape" sketch:type="MSShapeGroup"></path>
            <path d="M381.041481,18.9133882 L381.041481,91.5905367 C378.066596,92.2183614 374.979221,93.5974061 372.091074,93.2611199 C369.544464,92.9641574 366.045077,91.3545939 364.986587,89.2894168 C357.509393,74.6867299 352.887817,59.3951986 354.487072,42.5768193 C354.858424,38.6729159 352.916278,34.4584902 351.650427,30.511195 C350.3141,26.348297 348.515616,22.3332021 347.538444,19.8368193 C340.13308,17.4814597 333.608662,15.4040787 326.689851,13.2033023 C326.817249,12.8073524 327.194023,11.6479785 327.555888,10.4845367 C330.240739,1.88754204 330.800479,1.6868551 337.988994,6.67148479 C338.705948,7.16913417 339.580117,7.4471127 340.269966,7.97459392 C346.179077,12.502254 347.520825,12.1483399 349.954946,5.39685152 C350.524172,3.81847585 351.186914,2.27264401 352.906791,0.705116279 C353.049097,1.78719857 353.246971,2.86656887 353.317447,3.95271914 C353.389278,5.05649732 353.333711,6.16841145 353.333711,7.6749195 C355.489994,7.96510197 357.411811,8.2240966 359.233335,8.46817531 C359.05308,10.8886225 358.880957,13.1965224 358.726453,15.2535635 C366.164344,16.4726011 373.122458,17.614347 381.041481,18.9133882 L381.041481,18.9133882 Z" id="Shape" sketch:type="MSShapeGroup"></path>
            <path d="M132.75443,279.295202 C128.871493,276.19947 125.128152,272.89356 121.014814,270.14225 C119.883138,269.38425 117.404292,269.796472 115.97445,270.520572 C113.659596,271.693506 111.698476,273.568844 110.263212,274.642791 C105.145596,272.200648 100.353252,270.166658 95.825192,267.65536 C93.3043324,266.257331 90.9406877,264.325041 88.9904097,262.189352 C76.3183467,248.317546 63.7655501,234.337259 51.2154642,220.352905 C49.7530946,218.724358 48.5468768,216.863936 47.1360086,214.995377 C55.2894986,212.028465 60.5250258,206.786197 63.3535387,199.009578 C64.1585874,196.795242 65.1411805,194.263603 66.8420831,192.820826 C74.2284728,186.550716 76.0865903,186.801574 84.1790917,193.923249 C82.4863209,196.378952 80.7664441,198.873979 78.585765,202.040222 C80.5943209,202.764322 81.7259971,203.118236 82.815659,203.572494 C88.005106,205.733946 90.7916046,207.772004 89.6802579,215.22454 C88.4713295,223.332021 91.6820372,232.097159 92.9695731,240.576182 C93.0034556,240.798565 93.1051032,241.015524 93.113235,241.236551 C93.6201175,255.650755 106.003501,257.675252 115.406579,263.176515 C122.165464,267.131946 128.120656,272.460998 134.436358,277.178497 C133.875264,277.88497 133.314169,278.590086 132.75443,279.295202 L132.75443,279.295202 Z" id="Shape" sketch:type="MSShapeGroup"></path>
            <path d="M320.199315,296.943449 C301.45686,289.164118 281.712837,285.985671 268.929639,269.971395 C258.504665,256.911828 247.5579,243.98786 250.142458,225.138204 C250.830951,220.115606 249.036533,214.752655 248.367014,209.441231 C258.592759,205.698691 263.180453,205.976669 265.766367,211.635227 C267.371043,215.145893 267.510639,219.323707 268.350926,223.192354 C270.921931,235.039664 273.654218,246.855785 276.047679,258.739707 C277.470745,265.800361 284.122562,270.582948 291.046794,269.09 C297.301507,267.740787 303.560287,266.39971 309.857014,265.276948 C311.023928,265.068125 313.355046,265.687814 313.502774,266.312927 C315.820338,276.143875 317.869553,286.038555 320.199315,296.943449 L320.199315,296.943449 Z" id="Shape" sketch:type="MSShapeGroup"></path>
            <path d="M426.580946,259.092265 C424.434149,256.49825 423.019215,254.789699 421.369814,252.793678 C423.680602,250.013893 428.104304,247.297839 422.771195,243.536315 C425.620037,241.511818 428.117857,239.738179 431.183547,237.559098 C429.944802,236.684483 428.974407,236.266837 428.394338,235.538669 C426.96043,233.739267 425.706777,231.796129 424.381292,229.911299 C426.518602,228.747857 428.550198,226.890147 430.81355,226.540301 C439.950989,225.127356 447.086648,221.453971 450.709367,212.282036 C452.30049,208.256093 454.788822,204.584064 457.11994,200.285567 C451.297567,198.137674 454.454063,193.467635 455.629109,188.765052 C462.134553,189.779335 464.876327,184.499098 466.554189,179.820923 C469.588708,171.350036 476.479057,166.570161 482.625347,160.123771 C487.436665,163.786308 492.218166,167.427148 497.50655,171.453091 C483.513069,182.069159 478.779003,197.991227 470.606539,211.629803 C464.128201,222.441134 455.765994,231.179152 446.087791,239.149678 C438.992791,244.992651 433.114851,252.313657 426.580946,259.092265 L426.580946,259.092265 Z" id="Shape" sketch:type="MSShapeGroup"></path>
            <path d="M247.170284,385.026032 L223.892991,385.026032 C227.095567,377.18297 229.726206,370.222658 232.767501,363.446762 C235.563487,357.220043 241.560693,355.613191 247.320722,359.705578 C255.258719,365.345152 262.901261,371.401016 271.066948,377.577564 C269.955602,379.0678 269.296926,380.537696 268.16796,381.375699 C258.782501,388.344147 258.539903,398.398834 260.128315,408.235206 C262.697966,424.134222 253.906129,433.131234 238.469252,429.334454 C234.626974,428.389327 230.750814,427.583868 226.203779,426.560093 C233.038562,413.02186 239.843527,399.539224 247.170284,385.026032 L247.170284,385.026032 Z" id="Shape" sketch:type="MSShapeGroup"></path>
            <path d="M732.614656,76.562068 C727.380484,75.2969267 723.494837,75.7145725 723.181762,82.1528265 C723.15059,82.814551 722.281842,83.4383077 721.798,84.0756243 C716.50555,91.0522075 711.310682,98.1087943 705.848819,104.951134 C704.306487,106.882068 702.152914,109.1859 699.974946,109.566934 C695.475347,110.356122 694.153928,113.434225 693.62265,116.855395 C691.612739,129.829535 689.937587,142.855202 688.143169,155.817138 C679.650854,154.074687 679.054521,151.404737 678.239986,141.960247 C676.735602,124.467939 681.633659,108.324844 687.115851,92.4515921 C689.003785,86.981517 695.689484,83.1101574 700.351719,78.6869088 C702.167822,76.9634419 704.446083,75.7281324 707.874994,73.3103971 C690.105645,67.1094419 674.397708,65.7114132 657.627215,68.605102 C657.505238,68.2715277 657.136596,67.3548766 656.842496,66.4151735 C656.601252,65.6436136 656.450814,64.8422218 656.355943,64.4489839 C683.159728,60.1070948 708.171805,65.761585 732.614656,76.562068 L732.614656,76.562068 Z" id="Shape" sketch:type="MSShapeGroup"></path>
            <path d="M410.427115,358.955714 C412.189006,351.996758 413.645954,344.888644 415.974361,338.078848 C416.509705,336.512676 420.089054,335.012948 422.181639,335.121428 C432.16343,335.638061 442.115404,336.705227 452.07551,337.602894 C467.582862,338.999567 483.09157,340.393528 498.589436,341.882408 C499.599135,341.980039 500.532937,342.883131 501.722891,343.532651 C500.785023,348.551181 499.840378,353.594118 498.773756,359.300136 C494.866424,357.921091 491.69502,355.964394 488.443653,355.815234 C478.784424,355.373181 468.333699,353.299868 459.578456,356.139317 C442.822871,361.57278 426.548418,362.528755 410.427115,358.955714 L410.427115,358.955714 Z" id="Shape" sketch:type="MSShapeGroup"></path>
            <path d="M484.671851,473.653725 C498.997381,483.757227 520.163115,478.27766 531.757713,494.742125 C528.872278,504.068644 521.690539,510.774029 512.996284,514.239946 C504.384702,517.671964 494.657708,518.564208 485.316974,519.768329 C481.833851,520.217163 475.922029,510.387571 476.767736,506.806394 C479.344163,495.898787 481.96396,485.000673 484.671851,473.653725 L484.671851,473.653725 Z" id="Shape" sketch:type="MSShapeGroup"></path>
            <path d="M389.699143,145.717703 C385.83247,146.543503 381.995613,147.668977 378.086926,148.036451 C376.697742,148.166626 374.651238,146.797073 373.748607,145.518372 C371.759026,142.697907 370.624639,139.261821 368.568648,136.503732 C363.449676,129.636984 365.820097,121.849517 365.688633,114.470204 C365.586986,108.745202 366.836573,102.995792 367.701255,95.3452809 C373.992562,96.2443041 380.474966,97.1704472 387.212166,98.1318462 C387.212166,101.608612 387.273155,103.610057 387.199968,105.603367 C387.023779,110.38053 389.281711,112.274852 394.040172,112.701989 C396.865974,112.956916 399.541338,114.906834 402.283112,116.094683 C402.102857,116.744204 401.921246,117.392369 401.740991,118.040533 C404.124966,117.841202 406.50894,117.641871 409.146355,117.420844 C414.582467,124.641506 410.200779,132.799159 411.646885,139.989989 C406.942636,139.989989 402.729006,139.457084 398.732223,140.160844 C395.615032,140.708665 392.7689,142.795538 389.803501,144.200347 C389.770974,144.706132 389.734381,145.211918 389.699143,145.717703 L389.699143,145.717703 Z" id="Shape" sketch:type="MSShapeGroup"></path>
            <path d="M418.599579,504.192039 C412.05212,502.008891 406.48861,500.153893 400.232542,498.06702 L400.232542,446.531156 L433.94565,446.531156 C434.601616,449.664855 435.952851,452.893474 435.776662,456.035309 C435.521865,460.492458 434.715461,465.10419 433.131115,469.26302 C429.452828,478.921757 425.159235,488.344551 421.132636,497.870401 C420.29506,499.852862 419.53067,501.865156 418.599579,504.192039 L418.599579,504.192039 Z" id="Shape" sketch:type="MSShapeGroup"></path>
            <path d="M397.72388,476.864716 L397.72388,534.556787 C393.834166,532.544494 391.177777,530.475249 388.217799,529.842 C385.530238,529.267059 382.510628,530.254222 381.343713,530.376261 C377.36455,524.5021 374.237871,518.402844 369.7071,513.640597 C365.665593,509.390916 363.270777,505.309377 364.174762,499.504372 C364.889006,494.922472 362.907556,491.768433 359.912341,488.237428 C355.330069,482.836508 351.951304,476.411814 349.224438,469.379635 C353.158877,474.000859 357.09196,478.620726 361.416725,483.701631 C369.552596,481.28932 378.183152,478.27088 387.76784,480.938118 C390.371372,481.660862 394.061857,478.467499 397.72388,476.864716 L397.72388,476.864716 Z" id="Shape" sketch:type="MSShapeGroup"></path>
            <path d="M432.136324,422.836537 C439.640625,428.745953 434.100155,436.23239 436.405521,442.935063 L400.050931,442.935063 L400.050931,396.842154 C393.683728,395.107839 386.283785,393.091478 378.910948,391.083252 C381.692026,388.291263 384.679109,387.329864 388.219155,390.630351 C389.066218,391.419538 390.666828,391.856168 391.855427,391.747689 C400.89935,390.913753 407.089009,395.68278 413.870934,400.952168 C420.411616,406.034429 428.758914,408.785739 436.836507,412.823886 C435.660106,415.32976 433.89686,419.08586 432.136324,422.836537 L432.136324,422.836537 Z" id="Shape" sketch:type="MSShapeGroup"></path>
            <path d="M418.895034,254.822243 C420.806009,256.580966 422.439146,258.084762 425.343556,260.760136 C395.709903,287.174877 361.754195,298.538097 322.732372,298.542165 C321.512602,291.11268 320.359241,284.094061 319.23163,277.231381 C328.785146,278.434147 337.47398,279.77658 346.214315,280.465424 C348.552209,280.649839 350.979553,278.439571 353.482794,278.012433 C362.446754,276.480161 371.46086,275.240784 380.455991,273.887503 C395.254521,271.660962 408.819728,266.886512 418.895034,254.822243 L418.895034,254.822243 Z" id="Shape" sketch:type="MSShapeGroup"></path>
            <path d="M830.883456,301.095499 C806.367418,286.57824 777.275885,280.92375 755.829605,260.419782 C759.255805,256.22434 762.093805,252.3462 765.418358,248.94537 C766.292527,248.050415 769.047854,247.937868 770.298797,248.628068 C789.422092,259.179048 808.275682,270.229034 827.577877,280.435592 C833.491054,283.562512 835.305802,286.799267 833.015344,292.825299 C832.16286,295.066755 831.792862,297.492626 830.883456,301.095499 L830.883456,301.095499 Z" id="Shape" sketch:type="MSShapeGroup"></path>
            <path d="M571.716049,321.065206 C574.44698,319.648193 577.935524,317.837943 581.407805,316.034472 C583.408229,319.291567 582.769883,325.812537 589.73884,320.888927 C591.146997,319.894984 596.020659,323.812447 597.62398,324.621975 C597.393579,330.928698 597.119808,336.076047 597.045266,341.227463 C596.980212,345.725292 597.549438,350.267868 597.102189,354.714168 C596.516699,360.531377 592.69204,363.197259 586.871023,361.88737 C575.575946,359.344884 564.71863,356.071517 557.923152,345.266966 C555.859029,341.984107 552.164479,339.727735 548.705751,336.526236 C554.221825,331.067009 558.785123,326.101363 563.894607,321.78795 C565.32445,320.583828 568.373877,321.30386 571.716049,321.065206 L571.716049,321.065206 Z" id="Shape" sketch:type="MSShapeGroup"></path>
            <path d="M820.515404,80.2964723 C821.7799,71.9910161 822.972564,64.1411735 824.28314,55.523839 C839.397456,58.738898 854.607997,61.9119213 869.765682,65.3263113 C870.820106,65.56361 872.141524,67.5447156 872.203868,68.7732451 C872.470862,74.1199249 872.319069,79.4869445 872.319069,84.7373488 C856.481023,86.8133739 856.481023,86.8133739 855.491653,93.1906082 C837.975745,89.7328265 820.682106,85.6689159 804.254504,78.9296315 C804.574355,77.876025 804.896917,76.8210626 805.216768,75.7674562 C810.133799,77.2251485 815.050831,78.6801288 820.515404,80.2964723 L820.515404,80.2964723 Z" id="Shape" sketch:type="MSShapeGroup"></path>
            <path d="M267.181301,207.846583 C275.571968,211.968801 282.775393,214.569596 288.855272,218.792157 C293.711315,222.165868 296.503235,228.627174 301.45686,231.720193 C308.821564,236.318365 307.691244,243.762766 309.863791,250.09932 C310.990046,253.382179 311.380372,256.918608 312.468679,262.080873 C303.125235,263.543989 293.472782,265.054565 283.802711,266.569209 C273.175797,248.390769 274.108244,228.086132 267.181301,207.846583 L267.181301,207.846583 Z" id="Shape" sketch:type="MSShapeGroup"></path>
            <path d="M355.073917,191.512293 C359.352602,192.268937 365.042155,185.261166 370.776433,192.936086 C373.969521,190.521063 377.271034,188.167059 380.232367,185.442869 C380.416688,185.27337 377.931066,182.197979 376.598805,180.352472 C380.072441,178.939528 384.21153,177.258097 389.106877,175.267499 C391.413599,184.033993 397.52465,191.477038 394.296324,201.809703 C392.664542,207.027564 394.011711,213.175635 394.011711,218.384004 C392.039748,219.958311 389.998665,222.034336 387.556413,223.393041 C385.705072,224.423596 383.279083,225.16668 381.225802,224.947009 C374.870797,224.264945 368.519857,223.299478 362.293605,221.881109 C360.865117,221.555671 359.215716,219.110816 358.91755,217.419893 C357.433496,209.014093 356.368229,200.533714 355.073917,191.512293 L355.073917,191.512293 Z" id="Shape" sketch:type="MSShapeGroup"></path>
            <path d="M330.790991,239.556476 C329.644407,234.777957 328.431413,230.76015 327.774092,226.654204 C327.234682,223.284562 326.860619,219.546089 332.230321,219.609821 C336.998269,219.665417 341.77706,219.756268 346.531456,219.475578 C349.41147,219.304723 352.253536,218.455871 355.502192,217.837538 C359.394616,231.263224 374.190436,222.464186 383.018865,229.876043 C383.273662,230.869986 383.922851,233.400268 384.805152,236.841778 C372.444808,239.728687 360.317576,242.597968 348.17137,245.385889 C338.28445,247.655821 328.381266,249.857953 318.472662,252.030254 C315.04104,252.78283 312.170513,252.089918 311.452203,248.097875 C310.803014,244.476018 312.323662,242.916626 316.206599,242.561356 C320.761765,242.14371 325.231547,240.751106 330.790991,239.556476 L330.790991,239.556476 Z" id="Shape" sketch:type="MSShapeGroup"></path>
            <path d="M502.958926,256.144336 C503.830384,252.385524 504.654407,248.820619 505.727805,244.187191 C504.837372,243.216301 503.052441,241.269095 501.103519,239.142898 C508.256797,232.954147 515.092934,226.541657 522.567418,220.988866 C524.065026,219.876952 528.086203,221.78619 530.77241,222.769284 C533.099461,223.620848 535.38992,226.441313 537.337487,226.130791 C546.45053,224.681234 555.409069,222.293331 564.489585,220.592916 C567.151395,220.093911 570.030054,220.748855 573.929255,220.92649 C565.621261,232.701932 555.357567,238.948991 543.622017,242.250834 C530.491862,245.945914 517.212625,248.941302 505.36865,256.106369 C504.879387,256.401975 504.058074,256.144336 502.958926,256.144336 L502.958926,256.144336 Z" id="Shape" sketch:type="MSShapeGroup"></path>
            <path d="M423.351264,127.238233 C429.162794,127.819953 434.70733,128.1359 440.144797,129.072891 C441.650536,129.331886 443.60488,131.2018 444.058905,132.720512 C449.188719,149.896873 454.074579,167.143746 458.980768,184.386551 C459.14747,184.973696 458.843883,185.695084 458.762564,186.348673 C453.436232,185.975775 449.646811,189.753571 451.321963,197.021692 C452.624407,202.672114 449.518057,205.799034 448.180375,209.960576 C445.255636,219.062 438.872169,223.28185 429.294258,223.954422 C426.052378,224.180873 423.000241,227.127445 418.927562,229.33907 C418.501997,229.132959 416.55443,228.189188 413.590387,226.751835 C416.290146,223.006583 418.55892,219.311503 421.421315,216.154751 C422.5679,214.88961 425.049456,214.21297 426.879112,214.292973 C436.989656,214.741807 448.214258,205.460036 449.55194,195.379585 C450.969585,184.694361 447.321115,174.75629 445.015748,164.647363 C444.636264,162.979492 442.226539,161.833678 440.915963,160.30683 C435.300951,153.765521 429.127556,147.575413 424.458544,140.410347 C422.463542,137.351227 423.654851,132.214726 423.351264,127.238233 L423.351264,127.238233 Z" id="Shape" sketch:type="MSShapeGroup"></path>
            <path d="M127.459269,388.192275 C129.305189,385.938615 130.652358,384.296508 132.441355,382.114716 C135.604628,383.244258 139.070132,384.482279 142.829736,385.824712 C144.180971,380.035979 147.055564,380.490236 151.602599,383.538508 C154.736054,385.638941 158.906315,386.19083 164.544367,388.083796 C158.486172,390.009306 153.578628,392.058211 148.467788,393.038594 C144.5591,393.787102 140.390195,393.124021 136.339201,393.201313 C129.810716,393.328776 122.698097,391.384283 118.197143,398.602233 C114.792628,404.06146 111.163132,409.379664 107.769458,414.552776 C103.465023,411.219746 97.7930888,407.315843 92.735106,402.731231 C89.6192693,399.906698 88.230086,395.981098 91.0924814,391.772097 C95.672043,385.039592 100.103877,378.204032 104.78102,371.540683 C105.45596,370.579284 107.602756,369.499914 108.281762,369.879592 C112.645831,372.319023 118.571206,372.234952 120.57163,378.654222 C121.620633,382.02522 124.85167,384.714154 127.459269,388.192275 L127.459269,388.192275 Z" id="Shape" sketch:type="MSShapeGroup"></path>
            <path d="M412.689112,222.020776 C411.729559,225.16668 411.100699,227.231857 410.526052,229.112619 C415.451215,231.610358 420.381799,234.112165 425.049456,236.479728 C423.929977,243.242064 411.810877,239.377485 414.392725,249.382 C416.547653,248.887063 418.338006,248.477553 420.025355,248.089739 C422.18435,251.687188 402.153003,265.473567 389.964782,268.665574 C387.954871,259.527538 385.94767,250.408487 383.941825,241.286723 C389.784527,237.519775 385.44892,232.205639 385.6739,228.753281 C388.10802,226.496909 389.676103,224.758526 391.542352,223.443213 C392.40839,222.833016 394.636504,222.531986 394.921117,222.964547 C399.586063,230.044186 404.589834,224.694794 409.440456,223.489317 C410.245504,223.291342 410.980077,222.805896 412.689112,222.020776 L412.689112,222.020776 Z" id="Shape" sketch:type="MSShapeGroup"></path>
            <path d="M380.945255,241.564701 C382.526891,248.249746 384.039407,254.641896 385.549212,261.032691 C387.136269,267.746211 385.848734,269.857492 379.00853,271.236537 C374.058971,272.233191 369.076885,273.091535 364.083957,273.850891 C359.214361,274.591263 355.686513,272.59253 354.965493,267.652648 C354.304106,263.124987 352.459542,262.932436 348.687739,264.239614 C345.201905,265.447803 341.402997,265.755614 337.502441,266.505478 C336.862739,263.485682 336.84512,259.915352 335.361066,257.126075 C332.390246,251.546165 336.16747,250.484422 339.849822,249.615231 C351.821195,246.790698 363.845424,244.185835 375.873719,241.613517 C377.540739,241.256891 379.350066,241.564701 380.945255,241.564701 L380.945255,241.564701 Z" id="Shape" sketch:type="MSShapeGroup"></path>
            <path d="M234.206831,234.075553 C229.770931,228.655649 225.452943,223.134047 220.872026,217.838894 C214.109074,210.02024 207.290556,202.243621 200.2579,194.670401 C192.078659,185.865939 187.423201,169.626569 199.085564,157.99215 C201.432946,161.749606 203.699009,165.28468 205.878332,168.873993 C209.994381,175.652601 212.858132,183.761438 218.447393,188.933195 C225.763307,195.706379 228.679914,204.143367 231.732052,212.66985 C234.071301,219.207091 234.850599,226.303002 236.325166,233.150766 C235.619054,233.458576 234.912943,233.766386 234.206831,234.075553 L234.206831,234.075553 Z" id="Shape" sketch:type="MSShapeGroup"></path>
            <path d="M268.411914,204.106755 C270.635963,203.154848 271.897748,202.307352 273.262536,202.079546 C281.077201,200.771013 288.931169,199.68893 296.744479,198.369549 C301.799751,197.513918 309.564269,202.434816 313.150395,208.371352 C315.55741,212.355259 319.280421,215.602862 321.354032,219.714233 C323.942656,224.849377 325.531069,230.505224 327.268564,236.02547 C327.431201,236.54346 325.711324,238.208619 324.652834,238.46219 C320.180341,239.536136 315.627885,240.276508 312.653,240.844669 C306.07708,233.234837 300.776499,225.307703 293.745198,219.46473 C286.581077,213.511921 277.714699,209.608018 268.411914,204.106755 L268.411914,204.106755 Z" id="Shape" sketch:type="MSShapeGroup"></path>
            <path d="M174.02063,187.392787 C181.543905,196.399292 187.791842,204.323714 194.514135,211.825066 C206.077562,224.73005 217.936444,237.367903 229.670639,250.11966 C229.014673,250.817996 228.358708,251.514977 227.701387,252.211957 C226.218688,250.854608 224.136946,249.77795 223.350871,248.093807 C218.317284,237.31502 209.108014,230.647603 200.135923,223.668308 C194.183441,219.037592 188.122536,214.481456 182.645765,209.321903 C178.25188,205.183413 173.811914,203.190104 168.301261,206.150236 C161.870358,209.60395 155.485536,209.900912 149.394814,206.014637 C139.833166,199.914025 130.440931,202.208365 120.915877,205.761066 C120.552656,205.896665 120.071524,205.710894 118.5441,205.583431 C127.110957,200.563546 134.811777,195.844691 142.767393,191.601789 C144.011559,190.937352 146.380625,192.641835 148.276691,192.883202 C151.702891,193.321188 155.427258,194.427678 158.553937,193.557131 C164.415613,191.924515 169.939819,189.078286 174.02063,187.392787 L174.02063,187.392787 Z" id="Shape" sketch:type="MSShapeGroup"></path>
            <path d="M273.469897,301.343646 C263.078805,313.885224 249.889017,323.755496 253.243387,342.114283 C253.899352,345.707664 256.353802,349.440712 258.988507,352.110662 C265.575269,358.784859 272.743456,364.88547 280.280284,371.767134 C277.332504,374.06961 275.698011,375.345599 274.466043,376.306998 C261.826507,369.645005 254.579713,354.589417 237.118017,354.853835 C241.000954,353.257832 244.519315,351.834039 240.175576,348.806107 C241.396702,346.845342 242.929547,345.233066 243.470312,343.337388 C244.553198,339.547388 244.927261,335.559413 245.892235,331.727377 C247.719181,324.472816 245.51004,319.659041 237.591017,317.447417 C250.385057,311.704787 261.928155,306.524894 273.469897,301.343646 L273.469897,301.343646 Z" id="Shape" sketch:type="MSShapeGroup"></path>
            <path d="M396.733155,374.433016 C395.032252,377.334841 393.171424,380.507864 391.187264,383.891066 C383.87406,379.618333 376.91459,376.170043 370.682917,371.706114 C366.196871,368.492411 362.850633,363.735589 358.700702,359.994404 C346.942112,349.39054 335.084585,338.892444 323.130831,328.50825 C321.001653,326.658676 318.258524,325.48981 315.734954,324.125682 C304.271819,317.922014 292.793777,311.745467 281.296759,305.604175 C279.686662,304.744476 277.939679,304.141059 277.354189,302.264365 C295.009693,308.941274 311.488797,316.315163 326.489266,327.708215 C348.721622,344.58897 372.963888,358.82147 396.733155,374.433016 L396.733155,374.433016 Z" id="Shape" sketch:type="MSShapeGroup"></path>
            <path d="M814.396221,408.5281 C808.909963,407.254823 803.598539,406.022225 798.333195,404.800476 C802.263567,383.683599 815.491304,363.614905 806.607307,339.883674 C805.764309,340.756934 805.886287,340.512855 806.025883,340.502007 C824.876762,338.984651 825.422948,340.078937 820.400203,361.744991 C817.415831,374.621499 815.145702,387.670218 812.867441,400.695886 C812.492023,402.857338 813.71857,405.299481 814.396221,408.5281 L814.396221,408.5281 Z" id="Shape" sketch:type="MSShapeGroup"></path>
            <path d="M530.439006,342.530572 C529.304619,338.653789 528.256971,334.747174 527.007384,330.905646 C525.958381,327.679739 523.701805,324.493156 523.817006,321.355388 C523.901034,319.046132 527.82463,314.654072 528.548361,314.941542 C534.803074,317.427077 537.248037,312.069549 540.889731,309.586726 C543.401103,313.822848 544.362011,319.741757 551.69961,314.114386 C553.723074,312.561775 559.328599,315.684626 563.288788,316.662297 C563.474464,317.421653 563.65743,318.181009 563.841751,318.939009 C558.683476,322.499846 552.062831,325.125048 548.942928,329.993063 C547.205433,332.703692 545.171126,334.668526 543.224914,337.041513 C539.714685,341.326451 535.213731,342.070891 530.312963,342.385481 L530.439006,342.530572 L530.439006,342.530572 Z" id="Shape" sketch:type="MSShapeGroup"></path>
            <path d="M113.849338,231.726973 C108.364436,236.030894 102.716897,240.464991 95.311533,246.276776 C93.6350258,232.129703 92.1319971,219.45117 90.4907278,205.598347 C98.7933009,208.414744 105.255375,210.40941 111.526352,212.885453 C112.933155,213.440054 114.539186,215.657102 114.570358,217.141914 C114.676072,222.191631 114.119043,227.254909 113.849338,231.726973 L113.849338,231.726973 Z" id="Shape" sketch:type="MSShapeGroup"></path>
            <path d="M331.132527,251.811939 C332.533908,257.507109 333.783496,262.585302 335.294656,268.729306 C340.278097,268.124533 345.643734,267.473657 351.780536,266.729216 C352.490713,268.944909 353.396054,271.76673 354.361029,274.772966 C342.527897,279.575893 331.19216,278.592798 320.104444,272.751181 C313.943246,269.504934 316.512897,262.988032 314.988183,258.067134 C314.778112,257.389138 319.677524,254.738172 322.461312,253.633038 C325.028252,252.611975 327.931307,252.442476 331.132527,251.811939 L331.132527,251.811939 Z" id="Shape" sketch:type="MSShapeGroup"></path>
            <path d="M662.843768,201.008311 C667.794682,203.19146 672.398639,205.221381 677.608415,207.518433 C673.341928,216.571041 669.587745,225.177528 665.233163,233.469424 C663.364203,237.027549 660.244301,239.928018 656.475209,242.583052 C653.894716,227.874597 658.135453,214.619767 662.843768,201.008311 L662.843768,201.008311 Z" id="Friendship" sketch:type="MSShapeGroup"></path>
            <path d="M474.271272,216.115428 C483.156625,200.384555 488.522261,182.341714 505.378138,170.818487 C499.03804,189.43898 489.827415,204.916283 474.271272,216.115428 L474.271272,216.115428 Z" id="Shape" sketch:type="MSShapeGroup"></path>
            <path d="M530.312963,342.389549 C529.448281,348.433209 525.32139,350.393975 518.653309,347.721313 C515.174252,346.327352 511.928307,344.312347 508.403169,343.07975 C502.283986,340.939993 496.030628,339.190762 489.340862,336.076047 C493.528742,334.996676 497.715266,333.917306 501.900436,332.837936 C502.25688,333.522712 502.610613,334.208844 502.967057,334.893621 C503.358739,333.564748 503.751777,332.235875 503.995731,331.411431 C506.17641,332.357914 508.419433,333.331517 510.985017,334.446143 C511.74263,340.508787 524.005393,346.035814 530.45798,342.553624 C530.439006,342.530572 530.312963,342.389549 530.312963,342.389549 L530.312963,342.389549 Z" id="Shape" sketch:type="MSShapeGroup"></path>
            <path d="M423.875765,147.578125 C406.796264,148.333413 406.796264,148.333413 406.525203,143.157589 C413.781484,143.662018 414.532321,142.803674 413.103834,135.771496 C412.927645,134.902304 412.946619,133.978873 412.97508,133.083918 C413.032003,131.312991 413.160756,129.546132 413.270536,127.577231 C418.468115,127.786054 421.228862,129.467485 421.26139,135.150451 C421.285785,139.189953 422.899948,143.219964 423.875765,147.578125 L423.875765,147.578125 Z" id="Shape" sketch:type="MSShapeGroup"></path>
            <path d="M554.998413,495.188247 C551.775507,499.375553 550.249438,501.360726 548.281542,503.918129 C544.324063,502.376365 539.469375,500.484755 534.611977,498.591789 C534.630951,498.149735 534.64857,497.707682 534.6689,497.264272 C540.980536,496.618819 547.294883,495.974723 554.998413,495.188247 L554.998413,495.188247 Z" id="Shape" sketch:type="MSShapeGroup"></path>
        </g>
    </g>
</svg>